<?xml version="1.0" encoding="utf-8" standalone="no"?>
<!DOCTYPE svg PUBLIC "-//W3C//DTD SVG 1.1//EN"
  "http://www.w3.org/Graphics/SVG/1.1/DTD/svg11.dtd">
<svg xmlns:xlink="http://www.w3.org/1999/xlink" width="720pt" height="432pt" viewBox="0 0 720 432" xmlns="http://www.w3.org/2000/svg" version="1.1">
 <metadata>
  <rdf:RDF xmlns:dc="http://purl.org/dc/elements/1.1/" xmlns:cc="http://creativecommons.org/ns#" xmlns:rdf="http://www.w3.org/1999/02/22-rdf-syntax-ns#">
   <cc:Work>
    <dc:type rdf:resource="http://purl.org/dc/dcmitype/StillImage"/>
    <dc:date>2024-04-07T14:50:27.019049</dc:date>
    <dc:format>image/svg+xml</dc:format>
    <dc:creator>
     <cc:Agent>
      <dc:title>Matplotlib v3.8.2, https://matplotlib.org/</dc:title>
     </cc:Agent>
    </dc:creator>
   </cc:Work>
  </rdf:RDF>
 </metadata>
 <defs>
  <style type="text/css">*{stroke-linejoin: round; stroke-linecap: butt}</style>
 </defs>
 <g id="figure_1">
  <g id="patch_1">
   <path d="M 0 432 
L 720 432 
L 720 0 
L 0 0 
z
" style="fill: #ffffff"/>
  </g>
  <g id="axes_1">
   <g id="patch_2">
    <path d="M 90 384.48 
L 648 384.48 
L 648 51.84 
L 90 51.84 
z
" style="fill: #ffffff"/>
   </g>
   <g id="matplotlib.axis_1">
    <g id="xtick_1">
     <g id="line2d_1">
      <defs>
       <path id="m8290d9e604" d="M 0 0 
L 0 3.5 
" style="stroke: #000000; stroke-width: 0.8"/>
      </defs>
      <g>
       <use xlink:href="#m8290d9e604" x="90" y="384.48" style="stroke: #000000; stroke-width: 0.8"/>
      </g>
     </g>
     <g id="text_1">
      <!-- 0.0 -->
      <g transform="translate(82.048438 399.078438) scale(0.1 -0.1)">
       <defs>
        <path id="DejaVuSans-30" d="M 2034 4250 
Q 1547 4250 1301 3770 
Q 1056 3291 1056 2328 
Q 1056 1369 1301 889 
Q 1547 409 2034 409 
Q 2525 409 2770 889 
Q 3016 1369 3016 2328 
Q 3016 3291 2770 3770 
Q 2525 4250 2034 4250 
z
M 2034 4750 
Q 2819 4750 3233 4129 
Q 3647 3509 3647 2328 
Q 3647 1150 3233 529 
Q 2819 -91 2034 -91 
Q 1250 -91 836 529 
Q 422 1150 422 2328 
Q 422 3509 836 4129 
Q 1250 4750 2034 4750 
z
" transform="scale(0.015625)"/>
        <path id="DejaVuSans-2e" d="M 684 794 
L 1344 794 
L 1344 0 
L 684 0 
L 684 794 
z
" transform="scale(0.015625)"/>
       </defs>
       <use xlink:href="#DejaVuSans-30"/>
       <use xlink:href="#DejaVuSans-2e" x="63.623047"/>
       <use xlink:href="#DejaVuSans-30" x="95.410156"/>
      </g>
     </g>
    </g>
    <g id="xtick_2">
     <g id="line2d_2">
      <g>
       <use xlink:href="#m8290d9e604" x="201.6" y="384.48" style="stroke: #000000; stroke-width: 0.8"/>
      </g>
     </g>
     <g id="text_2">
      <!-- 0.2 -->
      <g transform="translate(193.648438 399.078438) scale(0.1 -0.1)">
       <defs>
        <path id="DejaVuSans-32" d="M 1228 531 
L 3431 531 
L 3431 0 
L 469 0 
L 469 531 
Q 828 903 1448 1529 
Q 2069 2156 2228 2338 
Q 2531 2678 2651 2914 
Q 2772 3150 2772 3378 
Q 2772 3750 2511 3984 
Q 2250 4219 1831 4219 
Q 1534 4219 1204 4116 
Q 875 4013 500 3803 
L 500 4441 
Q 881 4594 1212 4672 
Q 1544 4750 1819 4750 
Q 2544 4750 2975 4387 
Q 3406 4025 3406 3419 
Q 3406 3131 3298 2873 
Q 3191 2616 2906 2266 
Q 2828 2175 2409 1742 
Q 1991 1309 1228 531 
z
" transform="scale(0.015625)"/>
       </defs>
       <use xlink:href="#DejaVuSans-30"/>
       <use xlink:href="#DejaVuSans-2e" x="63.623047"/>
       <use xlink:href="#DejaVuSans-32" x="95.410156"/>
      </g>
     </g>
    </g>
    <g id="xtick_3">
     <g id="line2d_3">
      <g>
       <use xlink:href="#m8290d9e604" x="313.2" y="384.48" style="stroke: #000000; stroke-width: 0.8"/>
      </g>
     </g>
     <g id="text_3">
      <!-- 0.4 -->
      <g transform="translate(305.248438 399.078438) scale(0.1 -0.1)">
       <defs>
        <path id="DejaVuSans-34" d="M 2419 4116 
L 825 1625 
L 2419 1625 
L 2419 4116 
z
M 2253 4666 
L 3047 4666 
L 3047 1625 
L 3713 1625 
L 3713 1100 
L 3047 1100 
L 3047 0 
L 2419 0 
L 2419 1100 
L 313 1100 
L 313 1709 
L 2253 4666 
z
" transform="scale(0.015625)"/>
       </defs>
       <use xlink:href="#DejaVuSans-30"/>
       <use xlink:href="#DejaVuSans-2e" x="63.623047"/>
       <use xlink:href="#DejaVuSans-34" x="95.410156"/>
      </g>
     </g>
    </g>
    <g id="xtick_4">
     <g id="line2d_4">
      <g>
       <use xlink:href="#m8290d9e604" x="424.8" y="384.48" style="stroke: #000000; stroke-width: 0.8"/>
      </g>
     </g>
     <g id="text_4">
      <!-- 0.6 -->
      <g transform="translate(416.848438 399.078438) scale(0.1 -0.1)">
       <defs>
        <path id="DejaVuSans-36" d="M 2113 2584 
Q 1688 2584 1439 2293 
Q 1191 2003 1191 1497 
Q 1191 994 1439 701 
Q 1688 409 2113 409 
Q 2538 409 2786 701 
Q 3034 994 3034 1497 
Q 3034 2003 2786 2293 
Q 2538 2584 2113 2584 
z
M 3366 4563 
L 3366 3988 
Q 3128 4100 2886 4159 
Q 2644 4219 2406 4219 
Q 1781 4219 1451 3797 
Q 1122 3375 1075 2522 
Q 1259 2794 1537 2939 
Q 1816 3084 2150 3084 
Q 2853 3084 3261 2657 
Q 3669 2231 3669 1497 
Q 3669 778 3244 343 
Q 2819 -91 2113 -91 
Q 1303 -91 875 529 
Q 447 1150 447 2328 
Q 447 3434 972 4092 
Q 1497 4750 2381 4750 
Q 2619 4750 2861 4703 
Q 3103 4656 3366 4563 
z
" transform="scale(0.015625)"/>
       </defs>
       <use xlink:href="#DejaVuSans-30"/>
       <use xlink:href="#DejaVuSans-2e" x="63.623047"/>
       <use xlink:href="#DejaVuSans-36" x="95.410156"/>
      </g>
     </g>
    </g>
    <g id="xtick_5">
     <g id="line2d_5">
      <g>
       <use xlink:href="#m8290d9e604" x="536.4" y="384.48" style="stroke: #000000; stroke-width: 0.8"/>
      </g>
     </g>
     <g id="text_5">
      <!-- 0.8 -->
      <g transform="translate(528.448438 399.078438) scale(0.1 -0.1)">
       <defs>
        <path id="DejaVuSans-38" d="M 2034 2216 
Q 1584 2216 1326 1975 
Q 1069 1734 1069 1313 
Q 1069 891 1326 650 
Q 1584 409 2034 409 
Q 2484 409 2743 651 
Q 3003 894 3003 1313 
Q 3003 1734 2745 1975 
Q 2488 2216 2034 2216 
z
M 1403 2484 
Q 997 2584 770 2862 
Q 544 3141 544 3541 
Q 544 4100 942 4425 
Q 1341 4750 2034 4750 
Q 2731 4750 3128 4425 
Q 3525 4100 3525 3541 
Q 3525 3141 3298 2862 
Q 3072 2584 2669 2484 
Q 3125 2378 3379 2068 
Q 3634 1759 3634 1313 
Q 3634 634 3220 271 
Q 2806 -91 2034 -91 
Q 1263 -91 848 271 
Q 434 634 434 1313 
Q 434 1759 690 2068 
Q 947 2378 1403 2484 
z
M 1172 3481 
Q 1172 3119 1398 2916 
Q 1625 2713 2034 2713 
Q 2441 2713 2670 2916 
Q 2900 3119 2900 3481 
Q 2900 3844 2670 4047 
Q 2441 4250 2034 4250 
Q 1625 4250 1398 4047 
Q 1172 3844 1172 3481 
z
" transform="scale(0.015625)"/>
       </defs>
       <use xlink:href="#DejaVuSans-30"/>
       <use xlink:href="#DejaVuSans-2e" x="63.623047"/>
       <use xlink:href="#DejaVuSans-38" x="95.410156"/>
      </g>
     </g>
    </g>
    <g id="xtick_6">
     <g id="line2d_6">
      <g>
       <use xlink:href="#m8290d9e604" x="648" y="384.48" style="stroke: #000000; stroke-width: 0.8"/>
      </g>
     </g>
     <g id="text_6">
      <!-- 1.0 -->
      <g transform="translate(640.048437 399.078438) scale(0.1 -0.1)">
       <defs>
        <path id="DejaVuSans-31" d="M 794 531 
L 1825 531 
L 1825 4091 
L 703 3866 
L 703 4441 
L 1819 4666 
L 2450 4666 
L 2450 531 
L 3481 531 
L 3481 0 
L 794 0 
L 794 531 
z
" transform="scale(0.015625)"/>
       </defs>
       <use xlink:href="#DejaVuSans-31"/>
       <use xlink:href="#DejaVuSans-2e" x="63.623047"/>
       <use xlink:href="#DejaVuSans-30" x="95.410156"/>
      </g>
     </g>
    </g>
    <g id="text_7">
     <!-- Confidence Score -->
     <g transform="translate(325.294531 412.756563) scale(0.1 -0.1)">
      <defs>
       <path id="DejaVuSans-43" d="M 4122 4306 
L 4122 3641 
Q 3803 3938 3442 4084 
Q 3081 4231 2675 4231 
Q 1875 4231 1450 3742 
Q 1025 3253 1025 2328 
Q 1025 1406 1450 917 
Q 1875 428 2675 428 
Q 3081 428 3442 575 
Q 3803 722 4122 1019 
L 4122 359 
Q 3791 134 3420 21 
Q 3050 -91 2638 -91 
Q 1578 -91 968 557 
Q 359 1206 359 2328 
Q 359 3453 968 4101 
Q 1578 4750 2638 4750 
Q 3056 4750 3426 4639 
Q 3797 4528 4122 4306 
z
" transform="scale(0.015625)"/>
       <path id="DejaVuSans-6f" d="M 1959 3097 
Q 1497 3097 1228 2736 
Q 959 2375 959 1747 
Q 959 1119 1226 758 
Q 1494 397 1959 397 
Q 2419 397 2687 759 
Q 2956 1122 2956 1747 
Q 2956 2369 2687 2733 
Q 2419 3097 1959 3097 
z
M 1959 3584 
Q 2709 3584 3137 3096 
Q 3566 2609 3566 1747 
Q 3566 888 3137 398 
Q 2709 -91 1959 -91 
Q 1206 -91 779 398 
Q 353 888 353 1747 
Q 353 2609 779 3096 
Q 1206 3584 1959 3584 
z
" transform="scale(0.015625)"/>
       <path id="DejaVuSans-6e" d="M 3513 2113 
L 3513 0 
L 2938 0 
L 2938 2094 
Q 2938 2591 2744 2837 
Q 2550 3084 2163 3084 
Q 1697 3084 1428 2787 
Q 1159 2491 1159 1978 
L 1159 0 
L 581 0 
L 581 3500 
L 1159 3500 
L 1159 2956 
Q 1366 3272 1645 3428 
Q 1925 3584 2291 3584 
Q 2894 3584 3203 3211 
Q 3513 2838 3513 2113 
z
" transform="scale(0.015625)"/>
       <path id="DejaVuSans-66" d="M 2375 4863 
L 2375 4384 
L 1825 4384 
Q 1516 4384 1395 4259 
Q 1275 4134 1275 3809 
L 1275 3500 
L 2222 3500 
L 2222 3053 
L 1275 3053 
L 1275 0 
L 697 0 
L 697 3053 
L 147 3053 
L 147 3500 
L 697 3500 
L 697 3744 
Q 697 4328 969 4595 
Q 1241 4863 1831 4863 
L 2375 4863 
z
" transform="scale(0.015625)"/>
       <path id="DejaVuSans-69" d="M 603 3500 
L 1178 3500 
L 1178 0 
L 603 0 
L 603 3500 
z
M 603 4863 
L 1178 4863 
L 1178 4134 
L 603 4134 
L 603 4863 
z
" transform="scale(0.015625)"/>
       <path id="DejaVuSans-64" d="M 2906 2969 
L 2906 4863 
L 3481 4863 
L 3481 0 
L 2906 0 
L 2906 525 
Q 2725 213 2448 61 
Q 2172 -91 1784 -91 
Q 1150 -91 751 415 
Q 353 922 353 1747 
Q 353 2572 751 3078 
Q 1150 3584 1784 3584 
Q 2172 3584 2448 3432 
Q 2725 3281 2906 2969 
z
M 947 1747 
Q 947 1113 1208 752 
Q 1469 391 1925 391 
Q 2381 391 2643 752 
Q 2906 1113 2906 1747 
Q 2906 2381 2643 2742 
Q 2381 3103 1925 3103 
Q 1469 3103 1208 2742 
Q 947 2381 947 1747 
z
" transform="scale(0.015625)"/>
       <path id="DejaVuSans-65" d="M 3597 1894 
L 3597 1613 
L 953 1613 
Q 991 1019 1311 708 
Q 1631 397 2203 397 
Q 2534 397 2845 478 
Q 3156 559 3463 722 
L 3463 178 
Q 3153 47 2828 -22 
Q 2503 -91 2169 -91 
Q 1331 -91 842 396 
Q 353 884 353 1716 
Q 353 2575 817 3079 
Q 1281 3584 2069 3584 
Q 2775 3584 3186 3129 
Q 3597 2675 3597 1894 
z
M 3022 2063 
Q 3016 2534 2758 2815 
Q 2500 3097 2075 3097 
Q 1594 3097 1305 2825 
Q 1016 2553 972 2059 
L 3022 2063 
z
" transform="scale(0.015625)"/>
       <path id="DejaVuSans-63" d="M 3122 3366 
L 3122 2828 
Q 2878 2963 2633 3030 
Q 2388 3097 2138 3097 
Q 1578 3097 1268 2742 
Q 959 2388 959 1747 
Q 959 1106 1268 751 
Q 1578 397 2138 397 
Q 2388 397 2633 464 
Q 2878 531 3122 666 
L 3122 134 
Q 2881 22 2623 -34 
Q 2366 -91 2075 -91 
Q 1284 -91 818 406 
Q 353 903 353 1747 
Q 353 2603 823 3093 
Q 1294 3584 2113 3584 
Q 2378 3584 2631 3529 
Q 2884 3475 3122 3366 
z
" transform="scale(0.015625)"/>
       <path id="DejaVuSans-20" transform="scale(0.015625)"/>
       <path id="DejaVuSans-53" d="M 3425 4513 
L 3425 3897 
Q 3066 4069 2747 4153 
Q 2428 4238 2131 4238 
Q 1616 4238 1336 4038 
Q 1056 3838 1056 3469 
Q 1056 3159 1242 3001 
Q 1428 2844 1947 2747 
L 2328 2669 
Q 3034 2534 3370 2195 
Q 3706 1856 3706 1288 
Q 3706 609 3251 259 
Q 2797 -91 1919 -91 
Q 1588 -91 1214 -16 
Q 841 59 441 206 
L 441 856 
Q 825 641 1194 531 
Q 1563 422 1919 422 
Q 2459 422 2753 634 
Q 3047 847 3047 1241 
Q 3047 1584 2836 1778 
Q 2625 1972 2144 2069 
L 1759 2144 
Q 1053 2284 737 2584 
Q 422 2884 422 3419 
Q 422 4038 858 4394 
Q 1294 4750 2059 4750 
Q 2388 4750 2728 4690 
Q 3069 4631 3425 4513 
z
" transform="scale(0.015625)"/>
       <path id="DejaVuSans-72" d="M 2631 2963 
Q 2534 3019 2420 3045 
Q 2306 3072 2169 3072 
Q 1681 3072 1420 2755 
Q 1159 2438 1159 1844 
L 1159 0 
L 581 0 
L 581 3500 
L 1159 3500 
L 1159 2956 
Q 1341 3275 1631 3429 
Q 1922 3584 2338 3584 
Q 2397 3584 2469 3576 
Q 2541 3569 2628 3553 
L 2631 2963 
z
" transform="scale(0.015625)"/>
      </defs>
      <use xlink:href="#DejaVuSans-43"/>
      <use xlink:href="#DejaVuSans-6f" x="69.824219"/>
      <use xlink:href="#DejaVuSans-6e" x="131.005859"/>
      <use xlink:href="#DejaVuSans-66" x="194.384766"/>
      <use xlink:href="#DejaVuSans-69" x="229.589844"/>
      <use xlink:href="#DejaVuSans-64" x="257.373047"/>
      <use xlink:href="#DejaVuSans-65" x="320.849609"/>
      <use xlink:href="#DejaVuSans-6e" x="382.373047"/>
      <use xlink:href="#DejaVuSans-63" x="445.751953"/>
      <use xlink:href="#DejaVuSans-65" x="500.732422"/>
      <use xlink:href="#DejaVuSans-20" x="562.255859"/>
      <use xlink:href="#DejaVuSans-53" x="594.042969"/>
      <use xlink:href="#DejaVuSans-63" x="657.519531"/>
      <use xlink:href="#DejaVuSans-6f" x="712.5"/>
      <use xlink:href="#DejaVuSans-72" x="773.681641"/>
      <use xlink:href="#DejaVuSans-65" x="812.544922"/>
     </g>
    </g>
   </g>
   <g id="matplotlib.axis_2">
    <g id="ytick_1">
     <g id="line2d_7">
      <defs>
       <path id="m1fe93f26aa" d="M 0 0 
L -3.5 0 
" style="stroke: #000000; stroke-width: 0.8"/>
      </defs>
      <g>
       <use xlink:href="#m1fe93f26aa" x="90" y="369.36" style="stroke: #000000; stroke-width: 0.8"/>
      </g>
     </g>
     <g id="text_8">
      <!-- 0.0 -->
      <g transform="translate(67.096875 373.159219) scale(0.1 -0.1)">
       <use xlink:href="#DejaVuSans-30"/>
       <use xlink:href="#DejaVuSans-2e" x="63.623047"/>
       <use xlink:href="#DejaVuSans-30" x="95.410156"/>
      </g>
     </g>
    </g>
    <g id="ytick_2">
     <g id="line2d_8">
      <g>
       <use xlink:href="#m1fe93f26aa" x="90" y="305.621881" style="stroke: #000000; stroke-width: 0.8"/>
      </g>
     </g>
     <g id="text_9">
      <!-- 0.2 -->
      <g transform="translate(67.096875 309.4211) scale(0.1 -0.1)">
       <use xlink:href="#DejaVuSans-30"/>
       <use xlink:href="#DejaVuSans-2e" x="63.623047"/>
       <use xlink:href="#DejaVuSans-32" x="95.410156"/>
      </g>
     </g>
    </g>
    <g id="ytick_3">
     <g id="line2d_9">
      <g>
       <use xlink:href="#m1fe93f26aa" x="90" y="241.883762" style="stroke: #000000; stroke-width: 0.8"/>
      </g>
     </g>
     <g id="text_10">
      <!-- 0.4 -->
      <g transform="translate(67.096875 245.682981) scale(0.1 -0.1)">
       <use xlink:href="#DejaVuSans-30"/>
       <use xlink:href="#DejaVuSans-2e" x="63.623047"/>
       <use xlink:href="#DejaVuSans-34" x="95.410156"/>
      </g>
     </g>
    </g>
    <g id="ytick_4">
     <g id="line2d_10">
      <g>
       <use xlink:href="#m1fe93f26aa" x="90" y="178.145643" style="stroke: #000000; stroke-width: 0.8"/>
      </g>
     </g>
     <g id="text_11">
      <!-- 0.6 -->
      <g transform="translate(67.096875 181.944862) scale(0.1 -0.1)">
       <use xlink:href="#DejaVuSans-30"/>
       <use xlink:href="#DejaVuSans-2e" x="63.623047"/>
       <use xlink:href="#DejaVuSans-36" x="95.410156"/>
      </g>
     </g>
    </g>
    <g id="ytick_5">
     <g id="line2d_11">
      <g>
       <use xlink:href="#m1fe93f26aa" x="90" y="114.407524" style="stroke: #000000; stroke-width: 0.8"/>
      </g>
     </g>
     <g id="text_12">
      <!-- 0.8 -->
      <g transform="translate(67.096875 118.206742) scale(0.1 -0.1)">
       <use xlink:href="#DejaVuSans-30"/>
       <use xlink:href="#DejaVuSans-2e" x="63.623047"/>
       <use xlink:href="#DejaVuSans-38" x="95.410156"/>
      </g>
     </g>
    </g>
    <g id="text_13">
     <!-- F1 Score -->
     <g transform="translate(61.017187 239.808437) rotate(-90) scale(0.1 -0.1)">
      <defs>
       <path id="DejaVuSans-46" d="M 628 4666 
L 3309 4666 
L 3309 4134 
L 1259 4134 
L 1259 2759 
L 3109 2759 
L 3109 2228 
L 1259 2228 
L 1259 0 
L 628 0 
L 628 4666 
z
" transform="scale(0.015625)"/>
      </defs>
      <use xlink:href="#DejaVuSans-46"/>
      <use xlink:href="#DejaVuSans-31" x="57.519531"/>
      <use xlink:href="#DejaVuSans-20" x="121.142578"/>
      <use xlink:href="#DejaVuSans-53" x="152.929688"/>
      <use xlink:href="#DejaVuSans-63" x="216.40625"/>
      <use xlink:href="#DejaVuSans-6f" x="271.386719"/>
      <use xlink:href="#DejaVuSans-72" x="332.568359"/>
      <use xlink:href="#DejaVuSans-65" x="371.431641"/>
     </g>
    </g>
   </g>
   <g id="line2d_12">
    <path d="M 90 193.931724 
L 90.558559 193.905413 
L 91.117117 167.725183 
L 91.675676 152.902459 
L 92.792793 137.450708 
L 93.90991 127.406665 
L 94.468468 123.470739 
L 95.585586 117.627139 
L 96.144144 114.865493 
L 97.81982 108.829344 
L 99.495495 104.645026 
L 100.054054 103.405264 
L 101.72973 100.613419 
L 102.846847 98.126822 
L 103.963964 96.759297 
L 104.522523 96.144977 
L 105.63964 94.663721 
L 106.756757 93.64202 
L 107.315315 93.049698 
L 107.873874 92.630424 
L 108.432432 92.028953 
L 112.342342 89.267747 
L 114.018018 88.436658 
L 117.369369 86.682358 
L 117.927928 86.214004 
L 120.162162 85.095857 
L 122.396396 84.36931 
L 124.072072 83.941621 
L 125.189189 83.501883 
L 127.423423 82.904369 
L 127.981982 82.617972 
L 133.009009 81.541338 
L 135.801802 81.073164 
L 138.594595 80.405754 
L 144.18018 79.508607 
L 148.648649 78.557096 
L 151.441441 78.022407 
L 153.675676 77.809747 
L 155.90991 77.425772 
L 166.522523 76.535874 
L 172.666667 75.839967 
L 174.900901 75.765965 
L 176.576577 75.668099 
L 178.252252 75.464153 
L 181.045045 75.304934 
L 186.630631 75.038884 
L 187.747748 74.853077 
L 188.864865 74.727174 
L 192.774775 74.49815 
L 194.45045 74.478904 
L 202.27027 74.129363 
L 207.297297 73.900837 
L 211.765766 73.710293 
L 220.144144 73.393383 
L 226.846847 73.256157 
L 230.198198 73.125028 
L 245.279279 72.823846 
L 248.630631 72.654243 
L 253.657658 72.593787 
L 268.738739 72.530887 
L 278.234234 72.425401 
L 302.810811 72.1888 
L 305.603604 72.142455 
L 310.630631 72.016054 
L 334.648649 71.94072 
L 338.558559 72.041785 
L 339.675676 72.119825 
L 351.963964 71.923874 
L 361.459459 71.776536 
L 408.936937 71.754332 
L 427.369369 72.217625 
L 434.630631 72.464675 
L 436.864865 72.486007 
L 444.126126 72.589389 
L 446.918919 72.670293 
L 450.27027 72.639582 
L 451.945946 72.769207 
L 459.207207 73.072985 
L 467.027027 73.346765 
L 468.702703 73.517413 
L 483.225225 74.096029 
L 492.162162 74.571756 
L 493.837838 74.682268 
L 496.630631 74.999746 
L 499.981982 75.219363 
L 510.594595 76.035909 
L 513.387387 76.50979 
L 514.504505 77.003872 
L 516.738739 77.333085 
L 521.207207 77.853583 
L 522.324324 77.900166 
L 524 78.253613 
L 525.117117 78.447611 
L 527.351351 78.77775 
L 527.90991 79.006728 
L 529.585586 79.384125 
L 531.261261 79.836826 
L 532.378378 80.452893 
L 534.054054 81.099949 
L 536.288288 81.842352 
L 537.405405 82.316212 
L 542.432432 83.898557 
L 542.990991 84.171395 
L 544.108108 84.441323 
L 545.225225 84.886352 
L 546.900901 85.443242 
L 549.693694 86.536554 
L 550.810811 86.822451 
L 553.045045 88.39998 
L 554.162162 89.705228 
L 554.720721 90.098429 
L 555.837838 91.37662 
L 558.630631 93.402875 
L 559.189189 93.922289 
L 559.747748 94.732362 
L 560.864865 95.805474 
L 563.099099 98.321168 
L 564.216216 100.436743 
L 565.333333 101.936681 
L 566.45045 103.845763 
L 567.009009 105.102425 
L 567.567568 106.889015 
L 568.126126 107.832805 
L 569.243243 110.677985 
L 570.36036 112.929541 
L 570.918919 113.553336 
L 571.477477 114.771813 
L 572.036036 115.644008 
L 572.594595 116.97877 
L 573.153153 118.874352 
L 573.711712 120.261815 
L 574.27027 121.159399 
L 575.387387 123.458618 
L 575.945946 125.40719 
L 576.504505 126.728323 
L 577.063063 129.01369 
L 578.18018 131.44731 
L 578.738739 133.050564 
L 579.855856 135.184366 
L 581.531532 139.274625 
L 582.09009 141.441752 
L 583.207207 144.160621 
L 586.558559 152.741926 
L 587.117117 153.776039 
L 587.675676 155.27008 
L 588.792793 157.641771 
L 589.351351 159.500733 
L 589.90991 160.879598 
L 590.468468 161.653452 
L 593.81982 169.373646 
L 594.378378 170.540979 
L 594.936937 172.264884 
L 595.495495 173.116818 
L 596.612613 175.432332 
L 597.171171 176.885541 
L 597.72973 178.914151 
L 598.288288 180.224372 
L 599.405405 182.349021 
L 599.963964 184.895843 
L 600.522523 186.918994 
L 601.081081 189.376651 
L 601.63964 192.836814 
L 602.198198 194.018168 
L 602.756757 196.276036 
L 603.315315 197.762922 
L 603.873874 200.415302 
L 604.990991 206.366073 
L 606.108108 210.319354 
L 606.666667 211.903569 
L 607.225225 215.382734 
L 608.342342 220.505515 
L 610.018018 230.434986 
L 611.135135 237.134374 
L 611.693694 241.082284 
L 612.810811 247.582481 
L 613.927928 256.456726 
L 615.045045 261.092337 
L 615.603604 262.974388 
L 616.720721 268.778575 
L 617.279279 270.986752 
L 617.837838 274.53799 
L 618.396396 276.524794 
L 618.954955 281.158071 
L 619.513514 282.613801 
L 620.630631 286.899389 
L 622.306306 290.65787 
L 623.981982 296.740966 
L 624.540541 297.984556 
L 626.216216 308.869774 
L 627.333333 314.188423 
L 627.891892 318.531158 
L 629.009009 324.120726 
L 630.126126 332.82542 
L 630.684685 335.983122 
L 631.243243 337.723761 
L 631.801802 340.70337 
L 632.36036 345.198119 
L 632.918919 347.444811 
L 633.477477 352.407573 
L 634.036036 354.979196 
L 634.594595 356.498811 
L 635.711712 361.626576 
L 636.828829 364.760236 
L 637.387387 366.177125 
L 637.945946 366.998648 
L 639.063063 367.941841 
L 639.621622 368.023413 
L 640.18018 368.710414 
L 640.738739 368.914859 
L 641.297297 369.36 
L 648 369.36 
L 648 369.36 
" clip-path="url(#pa70356c1f8)" style="fill: none; stroke: #1f77b4; stroke-width: 1.5; stroke-linecap: square"/>
   </g>
   <g id="line2d_13">
    <path d="M 90 154.69115 
L 90.558559 154.686431 
L 91.117117 133.797931 
L 91.675676 121.874127 
L 92.792793 109.97785 
L 93.90991 102.652798 
L 94.468468 99.82775 
L 95.027027 97.809619 
L 95.585586 96.443275 
L 96.144144 94.75703 
L 97.261261 92.296836 
L 97.81982 91.035387 
L 101.72973 86.090047 
L 103.405405 84.508021 
L 103.963964 84.222983 
L 104.522523 83.714085 
L 105.081081 83.396075 
L 106.198198 82.508953 
L 107.315315 81.816829 
L 108.990991 81.075039 
L 110.108108 80.455715 
L 113.459459 79.087964 
L 114.576577 78.784735 
L 115.135135 78.6403 
L 117.369369 77.637296 
L 119.603604 77.061419 
L 121.837838 76.617247 
L 122.954955 76.359665 
L 123.513514 76.102172 
L 125.747748 75.726802 
L 134.126126 74.22282 
L 144.738739 73.222619 
L 162.612613 72.224131 
L 171.54955 71.844321 
L 185.513514 71.368187 
L 206.18018 70.708684 
L 249.747748 69.820131 
L 266.504505 69.565923 
L 284.378378 69.405892 
L 300.576577 69.363241 
L 345.261261 69.187731 
L 365.369369 69.217678 
L 375.981982 69.177435 
L 393.297297 68.903987 
L 405.585586 68.891763 
L 419.54955 69.015507 
L 427.927928 69.099988 
L 456.414414 69.242741 
L 470.378378 69.300703 
L 475.963964 69.382214 
L 478.756757 69.534845 
L 486.018018 69.932421 
L 494.396396 70.037465 
L 496.630631 70.054354 
L 501.099099 70.393996 
L 504.45045 70.559489 
L 520.648649 71.311983 
L 524 71.558264 
L 530.144144 72.188964 
L 534.612613 73.315468 
L 535.72973 73.32315 
L 540.756757 74.38712 
L 542.990991 74.764958 
L 543.54955 75.044799 
L 545.225225 75.322301 
L 546.900901 75.570708 
L 549.135135 76.590245 
L 550.252252 77.244188 
L 551.369369 77.511108 
L 551.927928 77.861569 
L 553.045045 78.242446 
L 554.162162 78.847809 
L 555.837838 79.605102 
L 556.396396 79.662409 
L 556.954955 80.073674 
L 558.072072 80.672728 
L 558.630631 81.068053 
L 559.189189 81.839254 
L 561.423423 82.803204 
L 561.981982 83.048485 
L 563.099099 83.991692 
L 565.333333 85.750779 
L 565.891892 86.160823 
L 567.009009 87.543567 
L 567.567568 88.528073 
L 568.126126 88.927013 
L 568.684685 89.567678 
L 569.243243 89.968027 
L 569.801802 90.744437 
L 570.918919 91.811612 
L 572.036036 92.698402 
L 572.594595 93.737793 
L 573.711712 94.568957 
L 574.27027 95.495039 
L 574.828829 96.013269 
L 575.945946 98.275208 
L 576.504505 98.631056 
L 577.621622 100.590512 
L 578.18018 102.082914 
L 578.738739 102.630523 
L 579.297297 103.496967 
L 580.414414 105.789612 
L 580.972973 106.617672 
L 581.531532 108.515114 
L 582.09009 109.721116 
L 583.207207 112.477117 
L 584.324324 114.667686 
L 584.882883 116.009671 
L 585.441441 116.82303 
L 586.558559 119.78091 
L 588.234234 122.633973 
L 588.792793 123.146829 
L 589.351351 124.518991 
L 590.468468 126.175421 
L 591.027027 126.894659 
L 592.144144 130.051844 
L 593.261261 132.116353 
L 594.936937 135.885362 
L 596.054054 138.276083 
L 596.612613 140.123418 
L 597.171171 142.851607 
L 597.72973 143.733023 
L 598.288288 145.9812 
L 599.963964 151.40976 
L 600.522523 153.887925 
L 602.198198 159.047874 
L 603.315315 163.535869 
L 603.873874 165.600646 
L 604.990991 170.842625 
L 605.54955 172.784808 
L 606.666667 178.565072 
L 607.225225 181.135753 
L 607.783784 184.722937 
L 608.342342 186.818181 
L 609.459459 192.09704 
L 610.018018 194.124863 
L 611.135135 199.625406 
L 611.693694 203.685641 
L 612.810811 209.543908 
L 613.369369 212.029713 
L 614.486486 220.281774 
L 616.162162 229.409487 
L 617.279279 236.504567 
L 618.954955 245.708255 
L 619.513514 250.181373 
L 620.072072 252.583209 
L 620.630631 256.143777 
L 621.189189 260.740609 
L 622.306306 266.232306 
L 622.864865 270.912545 
L 623.423423 274.046567 
L 623.981982 278.734554 
L 624.540541 282.466995 
L 625.099099 287.59832 
L 626.216216 294.033049 
L 627.333333 296.741837 
L 627.891892 298.632845 
L 629.009009 304.465397 
L 629.567568 308.191981 
L 632.36036 338.761228 
L 632.918919 342.010368 
L 633.477477 347.168162 
L 634.036036 349.982638 
L 634.594595 352.13569 
L 635.711712 358.750525 
L 636.27027 361.380193 
L 636.828829 365.759912 
L 637.387387 368.158191 
L 637.945946 368.759174 
L 639.063063 369.36 
L 648 369.36 
L 648 369.36 
" clip-path="url(#pa70356c1f8)" style="fill: none; stroke: #ff7f0e; stroke-width: 1.5; stroke-linecap: square"/>
   </g>
   <g id="line2d_14">
    <path d="M 90 135.269086 
L 90.558559 135.252658 
L 91.117117 117.689349 
L 91.675676 108.820697 
L 92.792793 99.318735 
L 93.351351 96.627455 
L 95.027027 90.373954 
L 96.144144 87.893191 
L 98.378378 84.059671 
L 99.495495 82.819119 
L 100.612613 81.890937 
L 101.171171 81.24446 
L 102.288288 80.343943 
L 102.846847 79.954905 
L 103.963964 79.577155 
L 104.522523 79.412723 
L 105.63964 78.542236 
L 107.315315 77.873155 
L 108.432432 77.487395 
L 110.666667 76.049944 
L 111.783784 75.709666 
L 112.900901 75.462937 
L 114.576577 75.162932 
L 119.045045 74.24613 
L 122.954955 73.78672 
L 125.189189 73.439247 
L 127.423423 73.223173 
L 130.774775 72.648103 
L 135.801802 72.225717 
L 145.297297 71.502216 
L 157.585586 71.020586 
L 159.81982 70.989882 
L 184.954955 70.116513 
L 258.126126 69.286822 
L 269.855856 69.219594 
L 270.972973 69.150501 
L 319.567568 69.056946 
L 334.09009 69.018283 
L 340.792793 69.067367 
L 361.459459 69.09919 
L 368.720721 69.070152 
L 401.675676 68.913403 
L 408.936937 68.944192 
L 444.684685 69.113579 
L 478.198198 69.34002 
L 494.396396 69.640677 
L 516.738739 70.013409 
L 518.414414 70.101461 
L 521.765766 70.247352 
L 523.441441 70.411947 
L 530.144144 70.816666 
L 530.702703 70.842599 
L 532.936937 71.329295 
L 541.315315 72.075105 
L 544.666667 73.02127 
L 545.783784 73.504869 
L 548.018018 74.164899 
L 550.252252 74.326674 
L 551.369369 74.730045 
L 553.603604 75.254072 
L 554.162162 75.31194 
L 554.720721 75.557917 
L 556.954955 75.995674 
L 558.072072 76.506723 
L 560.306306 77.546597 
L 560.864865 77.743118 
L 561.423423 78.193431 
L 565.891892 80.128955 
L 566.45045 80.765447 
L 567.009009 81.106035 
L 568.684685 82.623718 
L 569.243243 83.236799 
L 569.801802 84.16839 
L 570.918919 85.125224 
L 571.477477 85.513771 
L 572.036036 86.225155 
L 573.153153 87.348562 
L 573.711712 88.500312 
L 574.27027 89.313978 
L 575.387387 91.490868 
L 575.945946 92.07629 
L 577.063063 93.683341 
L 577.621622 94.223896 
L 578.18018 95.57022 
L 579.855856 98.140747 
L 580.972973 99.20744 
L 582.09009 101.577737 
L 583.207207 103.262585 
L 584.324324 105.809932 
L 587.117117 109.815476 
L 588.234234 112.161015 
L 589.351351 113.933529 
L 589.90991 115.355463 
L 590.468468 116.245845 
L 591.027027 117.583956 
L 592.144144 119.400588 
L 592.702703 121.008074 
L 593.261261 123.769679 
L 594.936937 128.044711 
L 595.495495 130.262776 
L 596.054054 131.816256 
L 596.612613 133.781962 
L 597.171171 136.765196 
L 597.72973 138.923687 
L 598.288288 140.378968 
L 598.846847 143.237211 
L 599.405405 145.47986 
L 599.963964 148.31325 
L 601.63964 153.63621 
L 602.198198 156.642919 
L 602.756757 158.380251 
L 603.315315 159.459692 
L 603.873874 161.242524 
L 604.990991 166.148731 
L 605.54955 169.269396 
L 606.666667 173.787098 
L 607.783784 178.526487 
L 608.342342 181.838128 
L 608.900901 184.101248 
L 609.459459 185.552769 
L 610.018018 187.86152 
L 610.576577 189.519692 
L 611.135135 193.129277 
L 612.252252 198.03958 
L 613.369369 203.172542 
L 613.927928 206.817623 
L 615.045045 216.61318 
L 615.603604 222.484503 
L 616.720721 231.802983 
L 617.279279 234.332871 
L 617.837838 238.024831 
L 618.954955 248.012649 
L 620.072072 255.347959 
L 621.189189 259.707488 
L 625.099099 281.878866 
L 625.657658 284.506081 
L 626.216216 288.345949 
L 626.774775 293.736233 
L 627.891892 302.051206 
L 628.45045 307.115314 
L 629.009009 310.98726 
L 630.126126 316.463414 
L 630.684685 320.494158 
L 631.243243 322.820527 
L 631.801802 326.172746 
L 632.918919 331.212078 
L 633.477477 334.78608 
L 634.594595 344.693245 
L 635.711712 355.179571 
L 636.27027 357.709438 
L 636.828829 361.064154 
L 637.387387 362.786039 
L 638.504505 368.192492 
L 639.063063 369.18578 
L 639.621622 369.36 
L 648 369.36 
L 648 369.36 
" clip-path="url(#pa70356c1f8)" style="fill: none; stroke: #2ca02c; stroke-width: 1.5; stroke-linecap: square"/>
   </g>
   <g id="line2d_15">
    <path d="M 90 116.367886 
L 90.558559 116.365412 
L 91.117117 103.359013 
L 91.675676 95.568087 
L 92.234234 91.810414 
L 93.351351 86.835824 
L 93.90991 84.837247 
L 94.468468 83.532898 
L 96.702703 79.666983 
L 97.261261 78.762472 
L 99.495495 76.719654 
L 101.171171 75.694353 
L 103.963964 74.616646 
L 105.081081 74.160109 
L 106.756757 73.49288 
L 108.990991 72.728811 
L 111.225225 72.159061 
L 115.135135 71.746415 
L 116.252252 71.544625 
L 118.486486 71.280812 
L 121.279279 70.810965 
L 124.630631 70.333156 
L 126.306306 70.08198 
L 133.009009 69.519768 
L 143.621622 68.985643 
L 148.648649 68.928622 
L 153.675676 68.568388 
L 156.468468 68.482971 
L 165.405405 68.310351 
L 168.198198 68.234561 
L 187.747748 67.754385 
L 193.333333 67.594502 
L 206.738739 67.473085 
L 220.144144 67.469418 
L 226.288288 67.41565 
L 241.369369 67.327138 
L 262.036036 67.195496 
L 281.585586 67.070042 
L 317.333333 67.032166 
L 343.585586 67.260974 
L 392.738739 67.42967 
L 416.756757 67.54355 
L 452.504505 67.859278 
L 455.855856 67.854271 
L 477.63964 68.056672 
L 530.144144 68.752013 
L 532.936937 69.065843 
L 537.405405 69.446889 
L 544.108108 70.022444 
L 545.225225 70.237848 
L 548.018018 70.349087 
L 550.810811 70.510674 
L 556.954955 71.084739 
L 558.630631 71.44565 
L 559.189189 71.749335 
L 561.981982 72.534011 
L 563.657658 73.127358 
L 564.216216 73.246569 
L 564.774775 73.510297 
L 565.891892 73.844246 
L 568.126126 74.661691 
L 569.243243 74.897845 
L 571.477477 75.990626 
L 572.036036 76.304377 
L 573.153153 77.28752 
L 573.711712 77.998124 
L 575.387387 79.36925 
L 575.945946 79.54161 
L 576.504505 79.844752 
L 580.972973 84.228851 
L 583.207207 87.240066 
L 584.324324 89.822655 
L 585.441441 90.709204 
L 586.558559 92.490638 
L 587.117117 93.223317 
L 587.675676 93.532857 
L 588.234234 94.588232 
L 589.351351 95.992585 
L 590.468468 98.044033 
L 592.702703 103.362138 
L 593.81982 105.649955 
L 594.378378 106.210619 
L 594.936937 106.985787 
L 595.495495 107.449469 
L 596.612613 108.904113 
L 597.171171 110.044677 
L 597.72973 112.003104 
L 598.846847 113.805909 
L 599.405405 115.412088 
L 599.963964 116.525515 
L 601.63964 121.133981 
L 602.198198 123.386931 
L 603.315315 126.649425 
L 604.432432 130.64569 
L 606.108108 135.811007 
L 606.666667 137.167507 
L 607.225225 138.21379 
L 607.783784 139.543759 
L 608.342342 141.174022 
L 608.900901 143.214992 
L 609.459459 144.203994 
L 610.018018 146.410397 
L 611.135135 149.382234 
L 612.810811 155.362351 
L 613.369369 159.562947 
L 616.162162 174.596251 
L 616.720721 178.098984 
L 617.279279 180.068206 
L 619.513514 195.220742 
L 620.630631 205.254781 
L 622.864865 219.90613 
L 623.423423 222.574905 
L 625.657658 235.62268 
L 626.774775 249.284133 
L 627.891892 255.967395 
L 629.567568 270.990302 
L 630.684685 287.834612 
L 631.243243 293.59714 
L 632.36036 308.11885 
L 632.918919 312.10387 
L 634.036036 322.491877 
L 634.594595 329.186532 
L 635.153153 331.140663 
L 635.711712 334.069901 
L 636.828829 341.658323 
L 637.387387 346.403187 
L 637.945946 349.744929 
L 638.504505 355.489017 
L 639.063063 364.996075 
L 639.621622 367.136582 
L 640.18018 368.750601 
L 640.738739 369.36 
L 648 369.36 
L 648 369.36 
" clip-path="url(#pa70356c1f8)" style="fill: none; stroke: #d62728; stroke-width: 1.5; stroke-linecap: square"/>
   </g>
   <g id="line2d_16">
    <path d="M 90 116.908633 
L 90.558559 116.902699 
L 91.117117 101.635746 
L 91.675676 95.439433 
L 92.792793 88.012942 
L 93.351351 85.944815 
L 94.468468 83.253262 
L 95.585586 81.133406 
L 96.144144 80.643902 
L 96.702703 79.786551 
L 98.378378 78.266945 
L 99.495495 77.43184 
L 100.054054 76.819121 
L 103.405405 74.514082 
L 110.108108 72.755322 
L 111.225225 72.580009 
L 112.342342 72.261391 
L 115.693694 71.8808 
L 117.927928 71.71456 
L 120.720721 71.288974 
L 122.396396 71.194125 
L 126.306306 70.867529 
L 130.774775 70.462468 
L 133.567568 70.175174 
L 140.828829 69.855588 
L 169.315315 68.941286 
L 174.342342 68.534573 
L 188.864865 68.363646 
L 233.54955 67.865638 
L 260.918919 67.794769 
L 282.144144 67.668841 
L 335.765766 67.414837 
L 367.045045 67.760332 
L 369.837838 67.838186 
L 433.513514 67.960343 
L 440.216216 67.969145 
L 494.396396 68.426622 
L 500.540541 68.452856 
L 512.828829 68.565339 
L 528.468468 69.038191 
L 534.054054 69.342933 
L 536.846847 69.517965 
L 540.756757 69.811368 
L 542.990991 70.386598 
L 546.900901 71.072795 
L 548.576577 71.712508 
L 549.135135 72.031084 
L 556.396396 74.038351 
L 558.072072 74.957888 
L 558.630631 75.509349 
L 559.189189 75.738744 
L 560.306306 76.454359 
L 561.981982 77.043529 
L 562.540541 77.176711 
L 563.657658 77.157768 
L 565.333333 77.665609 
L 567.567568 79.187132 
L 569.801802 81.535169 
L 570.918919 82.168922 
L 571.477477 82.255301 
L 572.594595 82.973807 
L 573.153153 83.230006 
L 573.711712 83.754087 
L 574.27027 84.081242 
L 574.828829 84.69064 
L 575.945946 85.551843 
L 576.504505 86.359998 
L 577.063063 86.777859 
L 579.297297 89.270097 
L 579.855856 90.092645 
L 580.414414 90.696613 
L 580.972973 91.03019 
L 581.531532 91.742833 
L 582.09009 92.84345 
L 583.207207 94.540915 
L 585.441441 98.960515 
L 587.117117 101.850906 
L 588.792793 103.653211 
L 589.90991 106.118019 
L 590.468468 106.896894 
L 591.027027 107.365745 
L 591.585586 108.403702 
L 592.144144 109.14558 
L 593.81982 112.866239 
L 594.378378 114.421996 
L 594.936937 115.408114 
L 596.054054 118.03274 
L 596.612613 118.981634 
L 597.171171 120.645732 
L 598.288288 122.836984 
L 598.846847 124.69229 
L 599.405405 125.564258 
L 599.963964 127.509792 
L 601.081081 129.814604 
L 601.63964 130.983729 
L 602.198198 132.524293 
L 603.315315 134.276174 
L 604.990991 139.13063 
L 606.108108 142.025372 
L 606.666667 143.574391 
L 607.225225 145.703739 
L 608.342342 148.263574 
L 608.900901 150.015325 
L 609.459459 151.225986 
L 610.018018 154.158999 
L 610.576577 155.399806 
L 612.252252 164.425189 
L 612.810811 168.310717 
L 614.486486 176.53226 
L 615.045045 178.372883 
L 616.162162 183.52532 
L 617.279279 190.635071 
L 618.396396 201.412794 
L 618.954955 206.360582 
L 621.189189 229.788714 
L 622.306306 237.278178 
L 624.540541 256.35903 
L 625.657658 262.143412 
L 626.216216 265.782571 
L 626.774775 271.607369 
L 629.009009 288.210054 
L 630.126126 294.819197 
L 630.684685 299.459025 
L 631.243243 307.467996 
L 631.801802 311.287855 
L 632.36036 316.162591 
L 633.477477 322.545783 
L 634.036036 324.808921 
L 634.594595 327.940123 
L 635.153153 330.108832 
L 635.711712 331.786457 
L 636.27027 336.540484 
L 636.828829 339.570206 
L 637.387387 341.947328 
L 637.945946 348.87756 
L 638.504505 353.609334 
L 639.621622 359.807364 
L 640.738739 363.595445 
L 641.297297 366.742948 
L 641.855856 368.161285 
L 642.414414 368.450892 
L 642.972973 369.36 
L 648 369.36 
L 648 369.36 
" clip-path="url(#pa70356c1f8)" style="fill: none; stroke: #9467bd; stroke-width: 1.5; stroke-linecap: square"/>
   </g>
   <g id="line2d_17">
    <path d="M 90 351.643489 
L 90.558559 351.640623 
L 91.675676 340.751594 
L 92.792793 332.182321 
L 94.468468 321.408043 
L 96.144144 312.282841 
L 98.378378 302.187945 
L 100.612613 293.736289 
L 102.846847 286.252858 
L 104.522523 281.113936 
L 105.081081 280.064766 
L 110.666667 266.288538 
L 116.810811 255.273347 
L 117.927928 253.655893 
L 119.603604 251.214818 
L 125.189189 244.257594 
L 126.864865 242.463637 
L 127.981982 241.110203 
L 132.45045 236.322389 
L 134.126126 234.787979 
L 134.684685 234.444327 
L 135.243243 233.84739 
L 138.036036 231.589109 
L 139.153153 230.443335 
L 141.945946 228.057059 
L 143.063063 227.351118 
L 144.18018 226.327823 
L 153.117117 220.828405 
L 154.234234 220.344769 
L 160.378378 217.818406 
L 161.495495 217.38312 
L 162.054054 217.059426 
L 163.171171 216.583676 
L 169.873874 213.603655 
L 173.225225 212.713388 
L 177.135135 211.835051 
L 181.045045 211.146272 
L 183.279279 210.5808 
L 186.630631 210.028377 
L 188.306306 209.896949 
L 191.099099 209.378929 
L 191.657658 209.347787 
L 192.216216 209.459097 
L 193.333333 209.376701 
L 199.477477 208.556694 
L 211.765766 207.615985 
L 214 207.559135 
L 215.117117 207.445631 
L 219.585586 207.113664 
L 221.261261 206.978756 
L 222.378378 207.017143 
L 223.495495 206.869016 
L 227.405405 206.772995 
L 228.522523 206.684764 
L 231.315315 206.657197 
L 232.990991 206.560592 
L 236.342342 206.483109 
L 237.459459 206.548887 
L 239.693694 206.555088 
L 243.045045 206.932172 
L 244.162162 206.864121 
L 249.189189 207.016928 
L 253.099099 207.241717 
L 254.774775 207.306048 
L 259.801802 207.498269 
L 260.918919 207.547206 
L 281.585586 209.70447 
L 285.495495 209.904513 
L 287.72973 210.116183 
L 288.846847 210.199272 
L 290.522523 210.45676 
L 292.756757 210.642482 
L 294.432432 210.776818 
L 301.693694 211.893317 
L 305.045045 212.236317 
L 308.396396 212.919229 
L 310.630631 213.103119 
L 311.747748 213.175641 
L 313.423423 213.305397 
L 320.126126 214.441712 
L 322.36036 214.692556 
L 329.621622 215.852022 
L 330.738739 216.085597 
L 337.441441 216.880668 
L 339.675676 217.098508 
L 344.702703 218.017987 
L 351.963964 219.163176 
L 353.63964 219.550332 
L 365.369369 221.73061 
L 373.189189 223.575718 
L 376.540541 224.135467 
L 379.333333 224.88397 
L 380.45045 225.081511 
L 381.567568 225.411931 
L 388.828829 226.850659 
L 390.504505 227.18385 
L 396.648649 228.375992 
L 403.351351 229.916842 
L 408.378378 231.073315 
L 412.288288 232.122179 
L 414.522523 232.684531 
L 415.63964 232.94216 
L 417.315315 233.432228 
L 419.54955 233.931552 
L 427.927928 235.977838 
L 429.603604 236.345908 
L 431.837838 236.853946 
L 434.630631 237.782468 
L 437.981982 238.853026 
L 441.891892 239.868943 
L 443.009009 240.077092 
L 444.126126 240.453155 
L 446.918919 241.249547 
L 450.828829 242.589007 
L 457.531532 245.272751 
L 458.648649 245.739876 
L 463.117117 247.232238 
L 464.792793 247.846959 
L 469.81982 249.467455 
L 470.378378 250.418424 
L 473.171171 251.463227 
L 488.810811 256.827066 
L 494.396396 258.708053 
L 496.072072 259.581236 
L 498.306306 260.567289 
L 502.774775 262.445288 
L 505.567568 263.696987 
L 510.036036 265.765966 
L 515.063063 268.103326 
L 523.441441 271.548267 
L 526.234234 273.071053 
L 528.468468 274.47445 
L 529.585586 275.214352 
L 531.261261 276.127687 
L 532.936937 277.205317 
L 535.72973 278.833302 
L 538.522523 280.624979 
L 539.63964 281.43307 
L 540.756757 282.20079 
L 541.873874 282.847225 
L 545.225225 284.855739 
L 545.783784 285.11263 
L 548.018018 286.777453 
L 549.135135 287.628625 
L 551.369369 289.109363 
L 553.603604 290.53213 
L 554.162162 291.033889 
L 556.954955 292.442209 
L 559.189189 293.880388 
L 560.306306 294.802099 
L 561.981982 296.261292 
L 569.243243 302.35116 
L 570.36036 303.431515 
L 571.477477 304.512415 
L 575.945946 308.881381 
L 577.621622 310.773068 
L 578.738739 311.793586 
L 579.297297 312.233562 
L 583.207207 316.603744 
L 586 319.392738 
L 589.90991 323.961129 
L 591.027027 325.177656 
L 593.81982 328.352043 
L 594.936937 329.706443 
L 596.612613 331.575824 
L 597.171171 332.317584 
L 599.963964 336.875681 
L 601.081081 338.326763 
L 602.198198 339.744951 
L 603.873874 341.668519 
L 604.432432 342.327867 
L 607.783784 347.287082 
L 608.900901 348.751289 
L 611.693694 352.753966 
L 613.369369 354.410129 
L 614.486486 355.506987 
L 616.162162 357.583449 
L 617.279279 358.673685 
L 620.072072 360.85527 
L 621.747748 361.9867 
L 622.864865 362.915967 
L 631.801802 367.333568 
L 632.36036 367.809891 
L 634.594595 368.188196 
L 635.711712 368.267543 
L 637.945946 368.832656 
L 641.297297 369.133264 
L 641.855856 369.253874 
L 648 369.36 
L 648 369.36 
" clip-path="url(#pa70356c1f8)" style="fill: none; stroke: #8c564b; stroke-width: 1.5; stroke-linecap: square"/>
   </g>
   <g id="line2d_18">
    <path d="M 90 343.699421 
L 90.558559 343.691688 
L 91.117117 334.356502 
L 92.234234 321.045197 
L 93.351351 310.817351 
L 95.027027 298.733235 
L 96.144144 292.149605 
L 98.378378 281.366687 
L 100.054054 274.389708 
L 101.72973 268.397399 
L 103.963964 261.128123 
L 107.315315 252.006737 
L 110.108108 245.935142 
L 110.666667 244.713835 
L 112.342342 241.735759 
L 113.459459 239.55617 
L 115.135135 236.71724 
L 117.369369 233.041831 
L 118.486486 231.405026 
L 119.603604 229.925725 
L 123.513514 225.195032 
L 125.747748 222.856871 
L 127.981982 220.921233 
L 133.009009 216.073825 
L 134.126126 215.043955 
L 135.243243 214.188928 
L 136.918919 212.643523 
L 139.153153 211.009546 
L 141.945946 209.002379 
L 143.063063 208.236417 
L 149.207207 204.227788 
L 152 202.608858 
L 154.234234 201.389467 
L 162.612613 196.975599 
L 164.846847 196.02257 
L 165.963964 195.494832 
L 168.756757 194.415848 
L 170.432432 193.862765 
L 172.108108 193.230945 
L 172.666667 192.968496 
L 173.783784 192.603447 
L 182.720721 189.783513 
L 183.837838 189.571286 
L 184.954955 189.209698 
L 187.747748 188.546599 
L 191.099099 187.845835 
L 192.774775 187.560097 
L 195.009009 187.062461 
L 197.801802 186.425826 
L 201.711712 185.991678 
L 204.504505 185.501505 
L 206.18018 185.324538 
L 208.972973 184.83158 
L 214 184.224412 
L 218.468468 183.876322 
L 219.585586 183.771344 
L 223.495495 183.473108 
L 231.315315 182.793615 
L 233.54955 182.395597 
L 245.279279 181.610824 
L 248.630631 181.513838 
L 252.540541 181.339225 
L 255.333333 181.24147 
L 257.009009 181.364527 
L 260.918919 181.354894 
L 262.036036 181.278667 
L 266.504505 181.262263 
L 270.972973 181.454285 
L 281.027027 181.449092 
L 282.144144 181.511004 
L 283.81982 181.469749 
L 288.846847 181.893903 
L 294.432432 182.004427 
L 296.666667 182.031858 
L 309.513514 182.496185 
L 311.747748 182.496246 
L 317.333333 183.129326 
L 319.567568 183.201852 
L 321.243243 183.311576 
L 326.27027 183.929986 
L 328.504505 184.022775 
L 332.972973 184.606838 
L 334.648649 184.758586 
L 337.441441 185.010954 
L 339.117117 185.14762 
L 343.585586 185.734726 
L 350.288288 186.237318 
L 353.081081 186.573535 
L 358.108108 187.257166 
L 362.018018 187.66153 
L 366.486486 188.538972 
L 369.279279 189.164232 
L 378.216216 190.537084 
L 379.333333 190.839592 
L 388.27027 192.408414 
L 389.387387 192.728131 
L 391.621622 193.154964 
L 406.702703 196.304568 
L 407.81982 196.576452 
L 411.72973 197.506495 
L 413.405405 197.895853 
L 415.081081 198.299737 
L 417.315315 198.781986 
L 420.666667 199.452784 
L 424.018018 200.25771 
L 437.981982 203.463027 
L 450.27027 206.947913 
L 455.855856 208.257528 
L 457.531532 208.830428 
L 459.207207 209.282758 
L 460.882883 209.803067 
L 470.378378 212.844085 
L 472.612613 213.596791 
L 474.846847 214.516191 
L 477.081081 215.480368 
L 483.225225 217.918868 
L 484.900901 218.662636 
L 487.693694 219.821485 
L 489.369369 220.550714 
L 490.486486 221.094516 
L 492.720721 221.818558 
L 494.396396 222.46901 
L 494.954955 223.461385 
L 497.189189 224.283864 
L 498.864865 225.14697 
L 505.009009 227.455721 
L 507.243243 228.329023 
L 510.594595 229.942209 
L 511.711712 230.363669 
L 515.621622 232.386082 
L 517.297297 233.463174 
L 519.531532 234.543588 
L 521.765766 235.500414 
L 524 236.72088 
L 524.558559 237.139558 
L 526.234234 238.022137 
L 530.144144 240.258643 
L 531.81982 241.331028 
L 534.054054 242.650303 
L 536.846847 244.474354 
L 537.963964 245.050962 
L 540.756757 247.042969 
L 542.990991 248.70442 
L 545.783784 250.50098 
L 546.900901 251.463565 
L 548.018018 252.172214 
L 550.252252 253.945212 
L 555.837838 258.654114 
L 556.954955 259.610145 
L 559.747748 262.039626 
L 560.864865 262.893532 
L 561.423423 263.469573 
L 561.981982 263.870626 
L 563.099099 264.989028 
L 567.567568 268.621784 
L 570.36036 271.155429 
L 572.594595 273.460768 
L 573.711712 274.723154 
L 575.387387 276.577657 
L 583.207207 286.079278 
L 584.324324 287.586564 
L 585.441441 289.535563 
L 587.117117 291.888477 
L 588.792793 294.466597 
L 589.351351 295.198015 
L 590.468468 296.958025 
L 591.585586 298.75042 
L 592.702703 300.76011 
L 594.378378 303.642614 
L 595.495495 305.858764 
L 597.171171 309.388464 
L 598.846847 313.036838 
L 599.963964 315.117333 
L 601.081081 317.047382 
L 603.315315 320.654307 
L 604.990991 324.01964 
L 606.108108 326.396179 
L 607.225225 328.539283 
L 608.342342 330.792971 
L 609.459459 333.209999 
L 610.576577 335.543068 
L 615.603604 347.099687 
L 616.720721 349.412007 
L 618.954955 353.940362 
L 620.072072 355.577033 
L 620.630631 356.891705 
L 621.747748 358.615536 
L 622.864865 359.871384 
L 623.981982 361.535074 
L 625.099099 362.889573 
L 626.774775 364.080325 
L 627.891892 364.742154 
L 629.009009 365.914644 
L 630.684685 366.732862 
L 631.801802 367.055725 
L 632.918919 367.85153 
L 635.153153 368.398878 
L 635.711712 368.527228 
L 636.27027 368.937341 
L 637.945946 369.307055 
L 648 369.36 
L 648 369.36 
" clip-path="url(#pa70356c1f8)" style="fill: none; stroke: #e377c2; stroke-width: 1.5; stroke-linecap: square"/>
   </g>
   <g id="line2d_19">
    <path d="M 90 337.175388 
L 90.558559 337.163771 
L 91.117117 324.953037 
L 92.234234 308.31741 
L 93.351351 296.574913 
L 94.468468 287.087502 
L 95.585586 279.511366 
L 97.261261 269.68006 
L 98.936937 261.584641 
L 100.612613 254.704421 
L 102.288288 248.865096 
L 103.963964 243.825833 
L 105.63964 239.114241 
L 106.756757 236.388531 
L 107.873874 233.77831 
L 109.54955 229.843181 
L 111.225225 226.523226 
L 116.252252 217.987339 
L 120.162162 212.533958 
L 122.396396 209.822901 
L 126.306306 205.615308 
L 130.216216 202.003779 
L 134.126126 198.63677 
L 135.243243 197.703999 
L 138.036036 195.386137 
L 140.828829 193.443366 
L 141.945946 192.603835 
L 145.297297 190.304562 
L 146.414414 189.515715 
L 148.648649 188.238859 
L 149.207207 188.002522 
L 150.324324 187.313607 
L 153.675676 185.547225 
L 155.90991 184.354862 
L 163.171171 181.234828 
L 164.846847 180.759403 
L 166.522523 180.198354 
L 167.081081 179.95629 
L 168.198198 179.667192 
L 169.315315 179.29294 
L 172.666667 178.215067 
L 173.783784 177.798204 
L 178.252252 176.755982 
L 182.162162 175.729259 
L 189.423423 174.067266 
L 193.333333 173.285845 
L 195.009009 172.870596 
L 199.477477 171.759188 
L 208.972973 170.474994 
L 210.09009 170.254134 
L 215.675676 169.794791 
L 217.351351 169.733053 
L 218.468468 169.621646 
L 220.702703 169.429878 
L 222.378378 169.192517 
L 229.63964 168.535877 
L 231.315315 168.684574 
L 238.576577 168.283551 
L 241.369369 168.140086 
L 244.162162 168.010996 
L 249.189189 167.643286 
L 250.864865 167.543565 
L 259.801802 167.578807 
L 267.621622 167.436202 
L 280.468468 167.690133 
L 282.144144 167.680443 
L 285.495495 167.742628 
L 293.315315 168.086285 
L 295.54955 168.277998 
L 308.396396 169.097947 
L 310.072072 169.302986 
L 316.216216 169.888329 
L 317.333333 170.031524 
L 319.009009 170.047419 
L 322.918919 170.504246 
L 324.594595 170.684799 
L 326.828829 170.95316 
L 329.621622 171.206213 
L 334.09009 171.675965 
L 354.198198 174.137869 
L 356.990991 174.719426 
L 362.018018 175.494278 
L 363.135135 175.742059 
L 367.603604 176.246714 
L 371.513514 177.089429 
L 373.189189 177.364833 
L 377.657658 178.051768 
L 379.333333 178.267243 
L 390.504505 180.175225 
L 392.738739 180.499121 
L 400 181.9491 
L 401.675676 182.314069 
L 411.72973 184.132203 
L 416.198198 185.166297 
L 418.990991 185.792971 
L 423.459459 186.867517 
L 425.135135 187.275841 
L 427.369369 187.832774 
L 429.045045 188.197899 
L 441.333333 191.377111 
L 444.126126 192.037519 
L 451.387387 194.04243 
L 466.468468 198.588622 
L 469.261261 199.429209 
L 470.378378 199.786731 
L 473.171171 200.66383 
L 475.405405 201.43195 
L 476.522523 201.780728 
L 478.198198 202.348665 
L 486.018018 205.254565 
L 489.927928 206.770003 
L 492.720721 207.615278 
L 495.513514 208.951358 
L 496.630631 209.429722 
L 498.864865 210.164545 
L 500.540541 210.894451 
L 501.657658 211.41661 
L 503.333333 212.303698 
L 505.009009 213.057131 
L 506.684685 213.819515 
L 510.036036 215.396148 
L 515.063063 217.86315 
L 521.765766 221.057505 
L 523.441441 222.002702 
L 524.558559 222.560512 
L 525.675676 223.070064 
L 527.90991 224.33989 
L 536.846847 229.472216 
L 539.081081 230.85034 
L 540.756757 231.839352 
L 542.432432 232.950842 
L 543.54955 233.857671 
L 548.018018 237.121718 
L 549.693694 238.399063 
L 550.810811 239.152651 
L 553.045045 240.953249 
L 555.279279 242.728455 
L 556.954955 243.787715 
L 560.306306 246.353903 
L 561.423423 247.256622 
L 563.657658 249.514766 
L 569.243243 255.188116 
L 570.36036 256.123978 
L 572.594595 258.3795 
L 578.738739 265.247717 
L 581.531532 268.563735 
L 582.648649 269.918435 
L 584.324324 272.313064 
L 584.882883 273.253835 
L 586.558559 275.433679 
L 587.675676 276.912059 
L 591.027027 281.87838 
L 592.702703 284.80899 
L 599.405405 296.172022 
L 601.081081 299.797556 
L 601.63964 301.563674 
L 603.315315 304.923665 
L 604.432432 307.254531 
L 607.783784 314.410315 
L 608.900901 316.544095 
L 613.927928 328.030827 
L 617.279279 336.426955 
L 619.513514 343.364022 
L 621.189189 347.749718 
L 622.864865 352.193657 
L 623.423423 353.181479 
L 623.981982 353.917243 
L 626.216216 357.763035 
L 626.774775 358.494976 
L 627.891892 360.152224 
L 629.567568 362.392561 
L 632.918919 366.147019 
L 633.477477 366.810776 
L 634.036036 367.063711 
L 635.711712 368.164826 
L 636.828829 368.558071 
L 637.945946 369.226993 
L 640.738739 369.329854 
L 648 369.36 
L 648 369.36 
" clip-path="url(#pa70356c1f8)" style="fill: none; stroke: #7f7f7f; stroke-width: 1.5; stroke-linecap: square"/>
   </g>
   <g id="line2d_20">
    <path d="M 90 330.718353 
L 90.558559 330.707643 
L 91.117117 316.020118 
L 92.234234 297.009852 
L 93.351351 284.134258 
L 94.468468 273.949018 
L 95.585586 265.847331 
L 97.261261 256.153143 
L 98.378378 250.646993 
L 100.612613 241.525488 
L 102.288288 235.718576 
L 105.081081 227.631344 
L 106.756757 223.633215 
L 110.108108 216.607746 
L 112.342342 212.764456 
L 115.135135 208.525264 
L 116.252252 206.870836 
L 117.369369 205.529465 
L 119.045045 203.390604 
L 120.162162 202.06474 
L 121.279279 200.764156 
L 122.396396 199.424851 
L 124.072072 197.643243 
L 124.630631 197.145683 
L 125.747748 195.832327 
L 127.981982 194.05879 
L 128.540541 193.381082 
L 130.216216 191.795192 
L 131.333333 190.751488 
L 139.153153 185.218775 
L 143.621622 182.349944 
L 145.855856 181.079694 
L 146.972973 180.434414 
L 150.324324 178.986231 
L 152 178.152255 
L 157.585586 175.748244 
L 159.261261 175.049368 
L 160.936937 174.289368 
L 162.612613 173.546366 
L 164.846847 172.775785 
L 166.522523 172.318701 
L 170.432432 171.08551 
L 171.54955 170.855313 
L 173.225225 170.325324 
L 176.018018 169.513193 
L 177.135135 169.117295 
L 178.252252 168.91471 
L 182.720721 167.861121 
L 184.954955 167.453513 
L 187.189189 167.196637 
L 188.864865 166.831058 
L 190.540541 166.44683 
L 196.684685 165.347737 
L 198.918919 165.094009 
L 201.153153 164.710818 
L 203.387387 164.459415 
L 213.441441 163.186996 
L 216.792793 162.975115 
L 221.81982 162.444519 
L 222.936937 162.35362 
L 225.72973 161.977595 
L 227.405405 161.825954 
L 230.198198 161.658799 
L 232.432432 161.616985 
L 239.135135 161.056883 
L 241.369369 160.854471 
L 246.396396 160.722223 
L 247.513514 160.738062 
L 250.306306 160.584938 
L 252.540541 160.505047 
L 255.891892 160.309147 
L 266.504505 160.161753 
L 268.18018 160.179195 
L 270.972973 160.161999 
L 272.09009 160.229636 
L 274.882883 160.236222 
L 280.468468 160.455592 
L 283.261261 160.514245 
L 286.054054 160.683392 
L 293.315315 160.759561 
L 300.576577 161.301485 
L 307.837838 161.972606 
L 312.306306 162.319189 
L 312.864865 163.026204 
L 316.774775 163.283107 
L 321.243243 163.757401 
L 330.738739 164.360857 
L 342.468468 165.69518 
L 348.054054 166.296725 
L 366.486486 168.636494 
L 377.657658 170.615289 
L 386.036036 172.39302 
L 389.945946 173.120886 
L 394.972973 174.077007 
L 396.648649 174.355863 
L 399.441441 174.916047 
L 408.378378 176.711074 
L 411.171171 177.081623 
L 422.900901 179.664857 
L 425.693694 180.136388 
L 427.927928 180.694001 
L 430.720721 181.335303 
L 434.630631 182.316131 
L 441.333333 183.988563 
L 443.567568 184.563186 
L 452.504505 186.900906 
L 458.09009 188.517605 
L 476.522523 193.573165 
L 478.756757 194.36558 
L 480.990991 195.23102 
L 482.108108 195.599111 
L 484.900901 196.523252 
L 489.369369 197.983651 
L 491.603604 198.802701 
L 494.396396 199.955073 
L 498.864865 201.497443 
L 500.540541 202.165048 
L 501.657658 202.627612 
L 503.891892 203.472878 
L 505.567568 204.157579 
L 507.801802 205.057764 
L 511.153153 206.460185 
L 512.27027 207.052599 
L 518.414414 210.004227 
L 519.531532 210.519122 
L 529.027027 214.558051 
L 530.702703 215.39919 
L 532.936937 216.608065 
L 540.198198 221.161118 
L 543.54955 223.238033 
L 545.225225 224.443984 
L 554.162162 230.271742 
L 556.396396 231.957253 
L 558.072072 233.17114 
L 559.189189 234.133101 
L 560.306306 234.913877 
L 561.423423 235.903143 
L 566.45045 239.875964 
L 570.918919 244.076221 
L 572.036036 245.471285 
L 573.711712 247.285842 
L 576.504505 250.158192 
L 583.765766 258.535815 
L 585.441441 260.789696 
L 587.117117 262.83134 
L 588.234234 264.619941 
L 589.351351 266.234963 
L 600.522523 284.298795 
L 602.198198 287.786825 
L 602.756757 288.857524 
L 603.315315 290.189208 
L 604.990991 293.186971 
L 607.225225 298.449244 
L 607.783784 300.190609 
L 609.459459 304.32216 
L 610.018018 305.98318 
L 610.576577 308.368417 
L 613.369369 315.651007 
L 614.486486 319.017258 
L 615.045045 320.936295 
L 617.279279 326.865137 
L 619.513514 333.179998 
L 620.630631 336.284452 
L 621.747748 339.605422 
L 626.216216 350.253682 
L 626.774775 351.765731 
L 630.126126 358.607293 
L 630.684685 359.409867 
L 631.243243 360.600514 
L 632.918919 362.647977 
L 634.036036 363.610517 
L 634.594595 364.633838 
L 636.27027 366.448685 
L 636.828829 366.748877 
L 637.945946 367.543271 
L 640.18018 368.703485 
L 641.297297 369.278408 
L 648 369.36 
L 648 369.36 
" clip-path="url(#pa70356c1f8)" style="fill: none; stroke: #bcbd22; stroke-width: 1.5; stroke-linecap: square"/>
   </g>
   <g id="line2d_21">
    <path d="M 90 327.734228 
L 90.558559 327.72225 
L 91.117117 311.9433 
L 91.675676 301.082171 
L 92.792793 285.550205 
L 93.90991 274.557616 
L 95.027027 265.781031 
L 96.702703 255.515622 
L 98.378378 247.334784 
L 100.054054 240.65815 
L 102.288288 233.321136 
L 103.963964 228.54626 
L 105.081081 225.779592 
L 106.756757 221.744217 
L 110.666667 214.034892 
L 112.342342 210.936423 
L 112.900901 210.152839 
L 114.018018 208.257311 
L 115.135135 206.499986 
L 115.693694 205.831039 
L 117.369369 203.482855 
L 120.720721 199.113408 
L 122.396396 197.252595 
L 124.072072 195.428954 
L 125.189189 194.200312 
L 131.891892 187.79676 
L 134.126126 186.142562 
L 138.594595 182.861485 
L 142.504505 180.338315 
L 144.18018 179.493778 
L 145.855856 178.487258 
L 146.972973 177.932681 
L 153.117117 174.857525 
L 157.027027 173.316838 
L 162.054054 171.442425 
L 179.369369 166.52106 
L 180.486486 166.289143 
L 181.603604 165.948163 
L 186.072072 164.96884 
L 197.243243 162.727209 
L 198.918919 162.55582 
L 208.972973 161.271119 
L 211.207207 160.901824 
L 212.324324 160.755145 
L 214 160.478706 
L 220.144144 159.943494 
L 222.936937 159.687303 
L 226.846847 159.177259 
L 228.522523 159.066557 
L 230.198198 158.970894 
L 231.315315 158.819103 
L 237.459459 158.626626 
L 239.135135 158.593134 
L 244.162162 158.244474 
L 251.423423 157.757941 
L 252.540541 157.805107 
L 256.45045 157.812259 
L 258.684685 157.846145 
L 261.477477 157.654767 
L 262.594595 157.585666 
L 264.27027 157.658699 
L 268.738739 157.469327 
L 270.414414 157.537729 
L 278.792793 157.696108 
L 282.144144 157.848504 
L 288.846847 158.038736 
L 292.198198 158.116879 
L 296.108108 158.281788 
L 311.747748 158.807285 
L 313.423423 158.833564 
L 317.891892 159.311161 
L 324.036036 159.638646 
L 325.711712 159.789055 
L 330.18018 160.071489 
L 331.297297 160.173263 
L 332.972973 160.282365 
L 334.648649 160.551843 
L 338 160.821921 
L 351.963964 162.520614 
L 353.081081 162.67364 
L 355.873874 162.949176 
L 356.990991 163.058782 
L 359.225225 163.30648 
L 360.900901 163.431509 
L 364.252252 163.680148 
L 365.927928 163.810649 
L 374.864865 165.272249 
L 378.774775 165.943164 
L 382.684685 166.425069 
L 387.153153 167.207254 
L 390.504505 167.889937 
L 392.18018 168.136085 
L 393.297297 168.377316 
L 394.972973 168.578234 
L 398.324324 168.940734 
L 401.117117 169.381861 
L 403.351351 169.822985 
L 404.468468 170.084306 
L 410.612613 171.128709 
L 412.288288 171.548812 
L 415.63964 172.14674 
L 420.108108 172.842966 
L 421.225225 173.036572 
L 426.810811 174.07068 
L 432.396396 175.257113 
L 435.747748 176.032315 
L 437.423423 176.546766 
L 439.099099 176.995233 
L 444.126126 178.181956 
L 445.801802 178.663007 
L 458.648649 182.205544 
L 461.441441 182.909473 
L 462.558559 183.259917 
L 464.234234 183.7833 
L 468.144144 184.821535 
L 469.81982 185.27098 
L 474.846847 186.67416 
L 476.522523 187.308513 
L 479.315315 188.062767 
L 480.432432 188.397734 
L 482.666667 189.210218 
L 491.045045 191.769007 
L 492.162162 192.224713 
L 494.954955 193.527389 
L 500.540541 195.564833 
L 501.657658 196.105095 
L 506.126126 197.92208 
L 508.36036 198.842401 
L 511.153153 199.909129 
L 512.828829 200.573934 
L 513.945946 201.084154 
L 516.18018 202.181556 
L 519.531532 203.909406 
L 521.765766 204.809864 
L 523.441441 205.510443 
L 531.261261 209.351488 
L 531.81982 210.324338 
L 533.495495 211.343809 
L 537.963964 213.763269 
L 539.081081 214.376511 
L 541.315315 215.988025 
L 542.432432 216.730346 
L 553.045045 224.218897 
L 557.513514 226.812404 
L 561.423423 230.240276 
L 562.540541 231.056735 
L 564.216216 232.731177 
L 565.891892 234.237319 
L 569.243243 237.550709 
L 572.036036 240.029803 
L 575.387387 243.378597 
L 577.063063 245.648226 
L 578.18018 246.798949 
L 580.972973 249.666092 
L 582.09009 251.058784 
L 583.207207 252.386964 
L 587.117117 257.210305 
L 588.234234 258.728123 
L 588.792793 259.363857 
L 590.468468 261.762198 
L 591.585586 262.940728 
L 594.378378 267.261076 
L 596.612613 270.964221 
L 599.963964 277.74355 
L 601.081081 280.138828 
L 602.198198 282.56378 
L 603.873874 285.862038 
L 606.666667 291.287552 
L 607.783784 293.828724 
L 612.252252 304.750639 
L 613.369369 307.724484 
L 615.045045 312.445607 
L 618.396396 320.981071 
L 619.513514 324.408747 
L 620.630631 327.629811 
L 621.747748 330.417377 
L 622.864865 334.094934 
L 623.981982 337.591026 
L 626.216216 343.77824 
L 627.891892 348.544703 
L 629.009009 350.988207 
L 629.567568 352.559385 
L 630.684685 354.980954 
L 631.801802 357.314143 
L 633.477477 360.76424 
L 634.036036 362.394625 
L 634.594595 363.323135 
L 635.153153 363.892824 
L 635.711712 364.756936 
L 636.27027 365.306761 
L 636.828829 366.05806 
L 637.945946 366.774227 
L 640.18018 367.770538 
L 641.855856 368.685915 
L 645.765766 369.14129 
L 646.324324 369.36 
L 648 369.36 
L 648 369.36 
" clip-path="url(#pa70356c1f8)" style="fill: none; stroke: #17becf; stroke-width: 1.5; stroke-linecap: square"/>
   </g>
   <g id="patch_3">
    <path d="M 90 384.48 
L 90 51.84 
" style="fill: none; stroke: #000000; stroke-width: 0.8; stroke-linejoin: miter; stroke-linecap: square"/>
   </g>
   <g id="patch_4">
    <path d="M 648 384.48 
L 648 51.84 
" style="fill: none; stroke: #000000; stroke-width: 0.8; stroke-linejoin: miter; stroke-linecap: square"/>
   </g>
   <g id="patch_5">
    <path d="M 90 384.48 
L 648 384.48 
" style="fill: none; stroke: #000000; stroke-width: 0.8; stroke-linejoin: miter; stroke-linecap: square"/>
   </g>
   <g id="patch_6">
    <path d="M 90 51.84 
L 648 51.84 
" style="fill: none; stroke: #000000; stroke-width: 0.8; stroke-linejoin: miter; stroke-linecap: square"/>
   </g>
   <g id="text_14">
    <!-- F1-Confidence Curves for Different Models -->
    <g transform="translate(241.602188 45.84) scale(0.12 -0.12)">
     <defs>
      <path id="DejaVuSans-2d" d="M 313 2009 
L 1997 2009 
L 1997 1497 
L 313 1497 
L 313 2009 
z
" transform="scale(0.015625)"/>
      <path id="DejaVuSans-75" d="M 544 1381 
L 544 3500 
L 1119 3500 
L 1119 1403 
Q 1119 906 1312 657 
Q 1506 409 1894 409 
Q 2359 409 2629 706 
Q 2900 1003 2900 1516 
L 2900 3500 
L 3475 3500 
L 3475 0 
L 2900 0 
L 2900 538 
Q 2691 219 2414 64 
Q 2138 -91 1772 -91 
Q 1169 -91 856 284 
Q 544 659 544 1381 
z
M 1991 3584 
L 1991 3584 
z
" transform="scale(0.015625)"/>
      <path id="DejaVuSans-76" d="M 191 3500 
L 800 3500 
L 1894 563 
L 2988 3500 
L 3597 3500 
L 2284 0 
L 1503 0 
L 191 3500 
z
" transform="scale(0.015625)"/>
      <path id="DejaVuSans-73" d="M 2834 3397 
L 2834 2853 
Q 2591 2978 2328 3040 
Q 2066 3103 1784 3103 
Q 1356 3103 1142 2972 
Q 928 2841 928 2578 
Q 928 2378 1081 2264 
Q 1234 2150 1697 2047 
L 1894 2003 
Q 2506 1872 2764 1633 
Q 3022 1394 3022 966 
Q 3022 478 2636 193 
Q 2250 -91 1575 -91 
Q 1294 -91 989 -36 
Q 684 19 347 128 
L 347 722 
Q 666 556 975 473 
Q 1284 391 1588 391 
Q 1994 391 2212 530 
Q 2431 669 2431 922 
Q 2431 1156 2273 1281 
Q 2116 1406 1581 1522 
L 1381 1569 
Q 847 1681 609 1914 
Q 372 2147 372 2553 
Q 372 3047 722 3315 
Q 1072 3584 1716 3584 
Q 2034 3584 2315 3537 
Q 2597 3491 2834 3397 
z
" transform="scale(0.015625)"/>
      <path id="DejaVuSans-44" d="M 1259 4147 
L 1259 519 
L 2022 519 
Q 2988 519 3436 956 
Q 3884 1394 3884 2338 
Q 3884 3275 3436 3711 
Q 2988 4147 2022 4147 
L 1259 4147 
z
M 628 4666 
L 1925 4666 
Q 3281 4666 3915 4102 
Q 4550 3538 4550 2338 
Q 4550 1131 3912 565 
Q 3275 0 1925 0 
L 628 0 
L 628 4666 
z
" transform="scale(0.015625)"/>
      <path id="DejaVuSans-74" d="M 1172 4494 
L 1172 3500 
L 2356 3500 
L 2356 3053 
L 1172 3053 
L 1172 1153 
Q 1172 725 1289 603 
Q 1406 481 1766 481 
L 2356 481 
L 2356 0 
L 1766 0 
Q 1100 0 847 248 
Q 594 497 594 1153 
L 594 3053 
L 172 3053 
L 172 3500 
L 594 3500 
L 594 4494 
L 1172 4494 
z
" transform="scale(0.015625)"/>
      <path id="DejaVuSans-4d" d="M 628 4666 
L 1569 4666 
L 2759 1491 
L 3956 4666 
L 4897 4666 
L 4897 0 
L 4281 0 
L 4281 4097 
L 3078 897 
L 2444 897 
L 1241 4097 
L 1241 0 
L 628 0 
L 628 4666 
z
" transform="scale(0.015625)"/>
      <path id="DejaVuSans-6c" d="M 603 4863 
L 1178 4863 
L 1178 0 
L 603 0 
L 603 4863 
z
" transform="scale(0.015625)"/>
     </defs>
     <use xlink:href="#DejaVuSans-46"/>
     <use xlink:href="#DejaVuSans-31" x="57.519531"/>
     <use xlink:href="#DejaVuSans-2d" x="121.142578"/>
     <use xlink:href="#DejaVuSans-43" x="157.226562"/>
     <use xlink:href="#DejaVuSans-6f" x="227.050781"/>
     <use xlink:href="#DejaVuSans-6e" x="288.232422"/>
     <use xlink:href="#DejaVuSans-66" x="351.611328"/>
     <use xlink:href="#DejaVuSans-69" x="386.816406"/>
     <use xlink:href="#DejaVuSans-64" x="414.599609"/>
     <use xlink:href="#DejaVuSans-65" x="478.076172"/>
     <use xlink:href="#DejaVuSans-6e" x="539.599609"/>
     <use xlink:href="#DejaVuSans-63" x="602.978516"/>
     <use xlink:href="#DejaVuSans-65" x="657.958984"/>
     <use xlink:href="#DejaVuSans-20" x="719.482422"/>
     <use xlink:href="#DejaVuSans-43" x="751.269531"/>
     <use xlink:href="#DejaVuSans-75" x="821.09375"/>
     <use xlink:href="#DejaVuSans-72" x="884.472656"/>
     <use xlink:href="#DejaVuSans-76" x="925.585938"/>
     <use xlink:href="#DejaVuSans-65" x="984.765625"/>
     <use xlink:href="#DejaVuSans-73" x="1046.289062"/>
     <use xlink:href="#DejaVuSans-20" x="1098.388672"/>
     <use xlink:href="#DejaVuSans-66" x="1130.175781"/>
     <use xlink:href="#DejaVuSans-6f" x="1165.380859"/>
     <use xlink:href="#DejaVuSans-72" x="1226.5625"/>
     <use xlink:href="#DejaVuSans-20" x="1267.675781"/>
     <use xlink:href="#DejaVuSans-44" x="1299.462891"/>
     <use xlink:href="#DejaVuSans-69" x="1376.464844"/>
     <use xlink:href="#DejaVuSans-66" x="1404.248047"/>
     <use xlink:href="#DejaVuSans-66" x="1439.453125"/>
     <use xlink:href="#DejaVuSans-65" x="1474.658203"/>
     <use xlink:href="#DejaVuSans-72" x="1536.181641"/>
     <use xlink:href="#DejaVuSans-65" x="1575.044922"/>
     <use xlink:href="#DejaVuSans-6e" x="1636.568359"/>
     <use xlink:href="#DejaVuSans-74" x="1699.947266"/>
     <use xlink:href="#DejaVuSans-20" x="1739.15625"/>
     <use xlink:href="#DejaVuSans-4d" x="1770.943359"/>
     <use xlink:href="#DejaVuSans-6f" x="1857.222656"/>
     <use xlink:href="#DejaVuSans-64" x="1918.404297"/>
     <use xlink:href="#DejaVuSans-65" x="1981.880859"/>
     <use xlink:href="#DejaVuSans-6c" x="2043.404297"/>
     <use xlink:href="#DejaVuSans-73" x="2071.1875"/>
    </g>
   </g>
   <g id="legend_1">
    <g id="patch_7">
     <path d="M 311.182031 379.48 
L 426.817969 379.48 
Q 428.817969 379.48 428.817969 377.48 
L 428.817969 231.69875 
Q 428.817969 229.69875 426.817969 229.69875 
L 311.182031 229.69875 
Q 309.182031 229.69875 309.182031 231.69875 
L 309.182031 377.48 
Q 309.182031 379.48 311.182031 379.48 
z
" style="fill: #ffffff; opacity: 0.8; stroke: #cccccc; stroke-linejoin: miter"/>
    </g>
    <g id="line2d_22">
     <path d="M 313.182031 237.797188 
L 323.182031 237.797188 
L 333.182031 237.797188 
" style="fill: none; stroke: #1f77b4; stroke-width: 1.5; stroke-linecap: square"/>
    </g>
    <g id="text_15">
     <!-- Model n (Fjord) -->
     <g transform="translate(341.182031 241.297188) scale(0.1 -0.1)">
      <defs>
       <path id="DejaVuSans-28" d="M 1984 4856 
Q 1566 4138 1362 3434 
Q 1159 2731 1159 2009 
Q 1159 1288 1364 580 
Q 1569 -128 1984 -844 
L 1484 -844 
Q 1016 -109 783 600 
Q 550 1309 550 2009 
Q 550 2706 781 3412 
Q 1013 4119 1484 4856 
L 1984 4856 
z
" transform="scale(0.015625)"/>
       <path id="DejaVuSans-6a" d="M 603 3500 
L 1178 3500 
L 1178 -63 
Q 1178 -731 923 -1031 
Q 669 -1331 103 -1331 
L -116 -1331 
L -116 -844 
L 38 -844 
Q 366 -844 484 -692 
Q 603 -541 603 -63 
L 603 3500 
z
M 603 4863 
L 1178 4863 
L 1178 4134 
L 603 4134 
L 603 4863 
z
" transform="scale(0.015625)"/>
       <path id="DejaVuSans-29" d="M 513 4856 
L 1013 4856 
Q 1481 4119 1714 3412 
Q 1947 2706 1947 2009 
Q 1947 1309 1714 600 
Q 1481 -109 1013 -844 
L 513 -844 
Q 928 -128 1133 580 
Q 1338 1288 1338 2009 
Q 1338 2731 1133 3434 
Q 928 4138 513 4856 
z
" transform="scale(0.015625)"/>
      </defs>
      <use xlink:href="#DejaVuSans-4d"/>
      <use xlink:href="#DejaVuSans-6f" x="86.279297"/>
      <use xlink:href="#DejaVuSans-64" x="147.460938"/>
      <use xlink:href="#DejaVuSans-65" x="210.9375"/>
      <use xlink:href="#DejaVuSans-6c" x="272.460938"/>
      <use xlink:href="#DejaVuSans-20" x="300.244141"/>
      <use xlink:href="#DejaVuSans-6e" x="332.03125"/>
      <use xlink:href="#DejaVuSans-20" x="395.410156"/>
      <use xlink:href="#DejaVuSans-28" x="427.197266"/>
      <use xlink:href="#DejaVuSans-46" x="466.210938"/>
      <use xlink:href="#DejaVuSans-6a" x="523.730469"/>
      <use xlink:href="#DejaVuSans-6f" x="551.513672"/>
      <use xlink:href="#DejaVuSans-72" x="612.695312"/>
      <use xlink:href="#DejaVuSans-64" x="652.058594"/>
      <use xlink:href="#DejaVuSans-29" x="715.535156"/>
     </g>
    </g>
    <g id="line2d_23">
     <path d="M 313.182031 252.475313 
L 323.182031 252.475313 
L 333.182031 252.475313 
" style="fill: none; stroke: #ff7f0e; stroke-width: 1.5; stroke-linecap: square"/>
    </g>
    <g id="text_16">
     <!-- Model s (Fjord) -->
     <g transform="translate(341.182031 255.975313) scale(0.1 -0.1)">
      <use xlink:href="#DejaVuSans-4d"/>
      <use xlink:href="#DejaVuSans-6f" x="86.279297"/>
      <use xlink:href="#DejaVuSans-64" x="147.460938"/>
      <use xlink:href="#DejaVuSans-65" x="210.9375"/>
      <use xlink:href="#DejaVuSans-6c" x="272.460938"/>
      <use xlink:href="#DejaVuSans-20" x="300.244141"/>
      <use xlink:href="#DejaVuSans-73" x="332.03125"/>
      <use xlink:href="#DejaVuSans-20" x="384.130859"/>
      <use xlink:href="#DejaVuSans-28" x="415.917969"/>
      <use xlink:href="#DejaVuSans-46" x="454.931641"/>
      <use xlink:href="#DejaVuSans-6a" x="512.451172"/>
      <use xlink:href="#DejaVuSans-6f" x="540.234375"/>
      <use xlink:href="#DejaVuSans-72" x="601.416016"/>
      <use xlink:href="#DejaVuSans-64" x="640.779297"/>
      <use xlink:href="#DejaVuSans-29" x="704.255859"/>
     </g>
    </g>
    <g id="line2d_24">
     <path d="M 313.182031 267.153437 
L 323.182031 267.153437 
L 333.182031 267.153437 
" style="fill: none; stroke: #2ca02c; stroke-width: 1.5; stroke-linecap: square"/>
    </g>
    <g id="text_17">
     <!-- Model m (Fjord) -->
     <g transform="translate(341.182031 270.653437) scale(0.1 -0.1)">
      <defs>
       <path id="DejaVuSans-6d" d="M 3328 2828 
Q 3544 3216 3844 3400 
Q 4144 3584 4550 3584 
Q 5097 3584 5394 3201 
Q 5691 2819 5691 2113 
L 5691 0 
L 5113 0 
L 5113 2094 
Q 5113 2597 4934 2840 
Q 4756 3084 4391 3084 
Q 3944 3084 3684 2787 
Q 3425 2491 3425 1978 
L 3425 0 
L 2847 0 
L 2847 2094 
Q 2847 2600 2669 2842 
Q 2491 3084 2119 3084 
Q 1678 3084 1418 2786 
Q 1159 2488 1159 1978 
L 1159 0 
L 581 0 
L 581 3500 
L 1159 3500 
L 1159 2956 
Q 1356 3278 1631 3431 
Q 1906 3584 2284 3584 
Q 2666 3584 2933 3390 
Q 3200 3197 3328 2828 
z
" transform="scale(0.015625)"/>
      </defs>
      <use xlink:href="#DejaVuSans-4d"/>
      <use xlink:href="#DejaVuSans-6f" x="86.279297"/>
      <use xlink:href="#DejaVuSans-64" x="147.460938"/>
      <use xlink:href="#DejaVuSans-65" x="210.9375"/>
      <use xlink:href="#DejaVuSans-6c" x="272.460938"/>
      <use xlink:href="#DejaVuSans-20" x="300.244141"/>
      <use xlink:href="#DejaVuSans-6d" x="332.03125"/>
      <use xlink:href="#DejaVuSans-20" x="429.443359"/>
      <use xlink:href="#DejaVuSans-28" x="461.230469"/>
      <use xlink:href="#DejaVuSans-46" x="500.244141"/>
      <use xlink:href="#DejaVuSans-6a" x="557.763672"/>
      <use xlink:href="#DejaVuSans-6f" x="585.546875"/>
      <use xlink:href="#DejaVuSans-72" x="646.728516"/>
      <use xlink:href="#DejaVuSans-64" x="686.091797"/>
      <use xlink:href="#DejaVuSans-29" x="749.568359"/>
     </g>
    </g>
    <g id="line2d_25">
     <path d="M 313.182031 281.831563 
L 323.182031 281.831563 
L 333.182031 281.831563 
" style="fill: none; stroke: #d62728; stroke-width: 1.5; stroke-linecap: square"/>
    </g>
    <g id="text_18">
     <!-- Model l (Fjord) -->
     <g transform="translate(341.182031 285.331563) scale(0.1 -0.1)">
      <use xlink:href="#DejaVuSans-4d"/>
      <use xlink:href="#DejaVuSans-6f" x="86.279297"/>
      <use xlink:href="#DejaVuSans-64" x="147.460938"/>
      <use xlink:href="#DejaVuSans-65" x="210.9375"/>
      <use xlink:href="#DejaVuSans-6c" x="272.460938"/>
      <use xlink:href="#DejaVuSans-20" x="300.244141"/>
      <use xlink:href="#DejaVuSans-6c" x="332.03125"/>
      <use xlink:href="#DejaVuSans-20" x="359.814453"/>
      <use xlink:href="#DejaVuSans-28" x="391.601562"/>
      <use xlink:href="#DejaVuSans-46" x="430.615234"/>
      <use xlink:href="#DejaVuSans-6a" x="488.134766"/>
      <use xlink:href="#DejaVuSans-6f" x="515.917969"/>
      <use xlink:href="#DejaVuSans-72" x="577.099609"/>
      <use xlink:href="#DejaVuSans-64" x="616.462891"/>
      <use xlink:href="#DejaVuSans-29" x="679.939453"/>
     </g>
    </g>
    <g id="line2d_26">
     <path d="M 313.182031 296.509688 
L 323.182031 296.509688 
L 333.182031 296.509688 
" style="fill: none; stroke: #9467bd; stroke-width: 1.5; stroke-linecap: square"/>
    </g>
    <g id="text_19">
     <!-- Model x (Fjord) -->
     <g transform="translate(341.182031 300.009688) scale(0.1 -0.1)">
      <defs>
       <path id="DejaVuSans-78" d="M 3513 3500 
L 2247 1797 
L 3578 0 
L 2900 0 
L 1881 1375 
L 863 0 
L 184 0 
L 1544 1831 
L 300 3500 
L 978 3500 
L 1906 2253 
L 2834 3500 
L 3513 3500 
z
" transform="scale(0.015625)"/>
      </defs>
      <use xlink:href="#DejaVuSans-4d"/>
      <use xlink:href="#DejaVuSans-6f" x="86.279297"/>
      <use xlink:href="#DejaVuSans-64" x="147.460938"/>
      <use xlink:href="#DejaVuSans-65" x="210.9375"/>
      <use xlink:href="#DejaVuSans-6c" x="272.460938"/>
      <use xlink:href="#DejaVuSans-20" x="300.244141"/>
      <use xlink:href="#DejaVuSans-78" x="332.03125"/>
      <use xlink:href="#DejaVuSans-20" x="391.210938"/>
      <use xlink:href="#DejaVuSans-28" x="422.998047"/>
      <use xlink:href="#DejaVuSans-46" x="462.011719"/>
      <use xlink:href="#DejaVuSans-6a" x="519.53125"/>
      <use xlink:href="#DejaVuSans-6f" x="547.314453"/>
      <use xlink:href="#DejaVuSans-72" x="608.496094"/>
      <use xlink:href="#DejaVuSans-64" x="647.859375"/>
      <use xlink:href="#DejaVuSans-29" x="711.335938"/>
     </g>
    </g>
    <g id="line2d_27">
     <path d="M 313.182031 311.187813 
L 323.182031 311.187813 
L 333.182031 311.187813 
" style="fill: none; stroke: #8c564b; stroke-width: 1.5; stroke-linecap: square"/>
    </g>
    <g id="text_20">
     <!-- Model n (COCO) -->
     <g transform="translate(341.182031 314.687813) scale(0.1 -0.1)">
      <defs>
       <path id="DejaVuSans-4f" d="M 2522 4238 
Q 1834 4238 1429 3725 
Q 1025 3213 1025 2328 
Q 1025 1447 1429 934 
Q 1834 422 2522 422 
Q 3209 422 3611 934 
Q 4013 1447 4013 2328 
Q 4013 3213 3611 3725 
Q 3209 4238 2522 4238 
z
M 2522 4750 
Q 3503 4750 4090 4092 
Q 4678 3434 4678 2328 
Q 4678 1225 4090 567 
Q 3503 -91 2522 -91 
Q 1538 -91 948 565 
Q 359 1222 359 2328 
Q 359 3434 948 4092 
Q 1538 4750 2522 4750 
z
" transform="scale(0.015625)"/>
      </defs>
      <use xlink:href="#DejaVuSans-4d"/>
      <use xlink:href="#DejaVuSans-6f" x="86.279297"/>
      <use xlink:href="#DejaVuSans-64" x="147.460938"/>
      <use xlink:href="#DejaVuSans-65" x="210.9375"/>
      <use xlink:href="#DejaVuSans-6c" x="272.460938"/>
      <use xlink:href="#DejaVuSans-20" x="300.244141"/>
      <use xlink:href="#DejaVuSans-6e" x="332.03125"/>
      <use xlink:href="#DejaVuSans-20" x="395.410156"/>
      <use xlink:href="#DejaVuSans-28" x="427.197266"/>
      <use xlink:href="#DejaVuSans-43" x="466.210938"/>
      <use xlink:href="#DejaVuSans-4f" x="536.035156"/>
      <use xlink:href="#DejaVuSans-43" x="614.746094"/>
      <use xlink:href="#DejaVuSans-4f" x="684.570312"/>
      <use xlink:href="#DejaVuSans-29" x="763.28125"/>
     </g>
    </g>
    <g id="line2d_28">
     <path d="M 313.182031 325.865938 
L 323.182031 325.865938 
L 333.182031 325.865938 
" style="fill: none; stroke: #e377c2; stroke-width: 1.5; stroke-linecap: square"/>
    </g>
    <g id="text_21">
     <!-- Model s (COCO) -->
     <g transform="translate(341.182031 329.365938) scale(0.1 -0.1)">
      <use xlink:href="#DejaVuSans-4d"/>
      <use xlink:href="#DejaVuSans-6f" x="86.279297"/>
      <use xlink:href="#DejaVuSans-64" x="147.460938"/>
      <use xlink:href="#DejaVuSans-65" x="210.9375"/>
      <use xlink:href="#DejaVuSans-6c" x="272.460938"/>
      <use xlink:href="#DejaVuSans-20" x="300.244141"/>
      <use xlink:href="#DejaVuSans-73" x="332.03125"/>
      <use xlink:href="#DejaVuSans-20" x="384.130859"/>
      <use xlink:href="#DejaVuSans-28" x="415.917969"/>
      <use xlink:href="#DejaVuSans-43" x="454.931641"/>
      <use xlink:href="#DejaVuSans-4f" x="524.755859"/>
      <use xlink:href="#DejaVuSans-43" x="603.466797"/>
      <use xlink:href="#DejaVuSans-4f" x="673.291016"/>
      <use xlink:href="#DejaVuSans-29" x="752.001953"/>
     </g>
    </g>
    <g id="line2d_29">
     <path d="M 313.182031 340.544062 
L 323.182031 340.544062 
L 333.182031 340.544062 
" style="fill: none; stroke: #7f7f7f; stroke-width: 1.5; stroke-linecap: square"/>
    </g>
    <g id="text_22">
     <!-- Model m (COCO) -->
     <g transform="translate(341.182031 344.044062) scale(0.1 -0.1)">
      <use xlink:href="#DejaVuSans-4d"/>
      <use xlink:href="#DejaVuSans-6f" x="86.279297"/>
      <use xlink:href="#DejaVuSans-64" x="147.460938"/>
      <use xlink:href="#DejaVuSans-65" x="210.9375"/>
      <use xlink:href="#DejaVuSans-6c" x="272.460938"/>
      <use xlink:href="#DejaVuSans-20" x="300.244141"/>
      <use xlink:href="#DejaVuSans-6d" x="332.03125"/>
      <use xlink:href="#DejaVuSans-20" x="429.443359"/>
      <use xlink:href="#DejaVuSans-28" x="461.230469"/>
      <use xlink:href="#DejaVuSans-43" x="500.244141"/>
      <use xlink:href="#DejaVuSans-4f" x="570.068359"/>
      <use xlink:href="#DejaVuSans-43" x="648.779297"/>
      <use xlink:href="#DejaVuSans-4f" x="718.603516"/>
      <use xlink:href="#DejaVuSans-29" x="797.314453"/>
     </g>
    </g>
    <g id="line2d_30">
     <path d="M 313.182031 355.222188 
L 323.182031 355.222188 
L 333.182031 355.222188 
" style="fill: none; stroke: #bcbd22; stroke-width: 1.5; stroke-linecap: square"/>
    </g>
    <g id="text_23">
     <!-- Model l (COCO) -->
     <g transform="translate(341.182031 358.722188) scale(0.1 -0.1)">
      <use xlink:href="#DejaVuSans-4d"/>
      <use xlink:href="#DejaVuSans-6f" x="86.279297"/>
      <use xlink:href="#DejaVuSans-64" x="147.460938"/>
      <use xlink:href="#DejaVuSans-65" x="210.9375"/>
      <use xlink:href="#DejaVuSans-6c" x="272.460938"/>
      <use xlink:href="#DejaVuSans-20" x="300.244141"/>
      <use xlink:href="#DejaVuSans-6c" x="332.03125"/>
      <use xlink:href="#DejaVuSans-20" x="359.814453"/>
      <use xlink:href="#DejaVuSans-28" x="391.601562"/>
      <use xlink:href="#DejaVuSans-43" x="430.615234"/>
      <use xlink:href="#DejaVuSans-4f" x="500.439453"/>
      <use xlink:href="#DejaVuSans-43" x="579.150391"/>
      <use xlink:href="#DejaVuSans-4f" x="648.974609"/>
      <use xlink:href="#DejaVuSans-29" x="727.685547"/>
     </g>
    </g>
    <g id="line2d_31">
     <path d="M 313.182031 369.900312 
L 323.182031 369.900312 
L 333.182031 369.900312 
" style="fill: none; stroke: #17becf; stroke-width: 1.5; stroke-linecap: square"/>
    </g>
    <g id="text_24">
     <!-- Model x (COCO) -->
     <g transform="translate(341.182031 373.400312) scale(0.1 -0.1)">
      <use xlink:href="#DejaVuSans-4d"/>
      <use xlink:href="#DejaVuSans-6f" x="86.279297"/>
      <use xlink:href="#DejaVuSans-64" x="147.460938"/>
      <use xlink:href="#DejaVuSans-65" x="210.9375"/>
      <use xlink:href="#DejaVuSans-6c" x="272.460938"/>
      <use xlink:href="#DejaVuSans-20" x="300.244141"/>
      <use xlink:href="#DejaVuSans-78" x="332.03125"/>
      <use xlink:href="#DejaVuSans-20" x="391.210938"/>
      <use xlink:href="#DejaVuSans-28" x="422.998047"/>
      <use xlink:href="#DejaVuSans-43" x="462.011719"/>
      <use xlink:href="#DejaVuSans-4f" x="531.835938"/>
      <use xlink:href="#DejaVuSans-43" x="610.546875"/>
      <use xlink:href="#DejaVuSans-4f" x="680.371094"/>
      <use xlink:href="#DejaVuSans-29" x="759.082031"/>
     </g>
    </g>
   </g>
  </g>
 </g>
 <defs>
  <clipPath id="pa70356c1f8">
   <rect x="90" y="51.84" width="558" height="332.64"/>
  </clipPath>
 </defs>
</svg>
